<svg width="24" height="24" viewBox="0 0 24 24" fill="none" xmlns="http://www.w3.org/2000/svg">
<path fill-rule="evenodd" clip-rule="evenodd" d="M19.8355 12.6761C19.8711 12.9266 19.7369 13.1704 19.5064 13.2743L11.0611 17.0819C10.5609 17.3094 9.97827 17.2795 9.50398 17.0057L3.11856 13.319C2.30417 12.8489 2.02418 11.8038 2.49434 10.9895L3.99483 8.39058L2.42503 6.62026C1.93725 6.07018 1.85649 5.27285 2.2241 4.63613L2.73105 3.75808C3.31366 2.74897 4.71072 2.60743 5.48391 3.4793L6.76148 4.92006L9.14301 6.2951L9.71147 5.31052L8.2346 4.45786C7.96272 4.30088 7.86957 3.95321 8.02654 3.68133C8.18344 3.40945 8.53111 3.31623 8.80306 3.47327L12.7414 5.74706C13.0133 5.90403 13.1064 6.25171 12.9495 6.52359C12.7918 6.79664 12.4436 6.88797 12.1729 6.73165L10.6961 5.87898L10.1276 6.86357L12.1812 8.0492C12.5757 8.27696 12.8579 8.64472 12.9758 9.08475L13.5888 11.373L19.3528 12.1933C19.6032 12.2289 19.8 12.4257 19.8355 12.6761ZM3.27564 5.86595L4.59403 7.35268C4.74122 7.0977 5.604 5.60328 5.70015 5.43676L4.63322 4.23358C4.37559 3.94298 3.9096 3.99054 3.71564 4.3265L3.20864 5.20456C3.08612 5.41678 3.11302 5.6826 3.27564 5.86595ZM10.592 16.0462L11.6015 15.5911L3.76312 11.0656L3.47889 11.5579C3.32218 11.8293 3.41552 12.1777 3.68699 12.3344L10.0724 16.0211C10.2311 16.1127 10.4253 16.1221 10.592 16.0462ZM12.8783 15.0154L17.2535 13.0429L13.0569 12.4457C12.8314 12.4136 12.6468 12.25 12.5879 12.03L11.8776 9.37892C11.8383 9.23225 11.7443 9.10965 11.6127 9.03374C11.0381 8.70199 7.12041 6.44014 6.60534 6.14275C6.55675 6.22692 4.60589 9.60592 4.33155 10.0811L12.8783 15.0154ZM21.1291 17.7471C21.3056 18.0758 21.3988 18.447 21.3988 18.822C21.3988 20.0757 20.3787 21.0957 19.1249 21.0957C17.8711 21.0957 16.8511 20.0757 16.8511 18.8219C16.8511 18.447 16.9443 18.0758 17.1208 17.7471L18.6111 14.5995C18.7052 14.4009 18.9052 14.2743 19.1249 14.2743C19.3446 14.2743 19.5447 14.4009 19.6387 14.5995L21.1291 17.7471ZM19.125 19.9589C19.7518 19.9589 20.2619 19.4488 20.2619 18.822C20.2619 18.6285 20.2152 18.4453 20.1233 18.2774C20.118 18.2676 20.1129 18.2577 20.1081 18.2477L19.125 16.1711L18.1418 18.2477C18.137 18.2577 18.132 18.2676 18.1266 18.2774C18.0347 18.4453 17.9881 18.6285 17.9881 18.822C17.9881 19.4488 18.4981 19.9589 19.125 19.9589Z" fill="#184460"/>
</svg>
