<svg width="24" height="24" viewBox="0 0 24 24" fill="none" xmlns="http://www.w3.org/2000/svg">
<path fill-rule="evenodd" clip-rule="evenodd" d="M10.6176 1.99976C11.3859 1.99976 12.0361 2.4399 12.4622 3.01378L12.4377 3.01099L12.5568 3.18191C12.6758 3.35239 12.774 3.53374 12.8508 3.72299C12.9479 3.98346 13.0003 4.24612 13.0003 4.48991V18.8534C13.0003 18.9219 12.9957 18.9913 12.9866 19.0614C12.9098 19.4106 12.7649 19.7415 12.5568 20.0391L12.4377 20.21L12.4691 20.2066C12.0587 20.714 11.4464 21.0916 10.7612 21.0916H5.13051C5.01585 21.0916 4.89961 21.0736 4.78362 21.0402C4.45379 20.9155 4.15379 20.7298 3.89793 20.4968C3.68115 20.2885 3.48745 20.0419 3.3361 19.7825C3.12165 19.3923 3 18.945 3 18.47V4.75108C3 3.23373 4.2337 2.00003 5.75105 2.00003L10.6176 1.99976ZM13.4238 2.26482C15.1048 2.61888 16.6192 3.34661 17.9253 4.55834C19.8854 6.37661 21.0091 8.94674 21.0091 11.6105C21.0091 16.2783 17.6872 20.145 13.2717 21.0264C13.5356 20.7121 13.7301 20.3369 13.8311 19.925C15.7494 19.3658 17.4381 18.135 18.5781 16.4353L18.6326 16.3544L17.6762 15.8025L18.1535 14.9761L19.1108 15.528L19.1545 15.4407C19.7427 14.2497 20.0536 12.9251 20.0536 11.6105C20.0536 10.3077 19.7472 8.99311 19.1681 7.80941L19.1263 7.72214L18.1535 8.28307L17.6762 7.45667L18.6499 6.89482L18.5962 6.81391C17.4611 5.1085 15.7773 3.87181 13.8608 3.30397C13.792 2.94173 13.6514 2.60518 13.4545 2.30927L13.4238 2.26482ZM12.095 15.9526L9.67943 17.5617L9.63943 17.589V20.2664H10.2995C11.2895 20.2664 12.095 19.4609 12.095 18.47V15.9526ZM8.68483 2.95462H7.36567V20.2664H8.68483V2.95462ZM3.95459 15.9526V18.47C3.95459 19.4609 4.761 20.2664 5.75105 20.2664H6.41108V17.589L3.95459 15.9526ZM13.91 5.96768C14.7677 6.34398 15.5283 6.91049 16.1407 7.63486C17.0816 8.74673 17.5989 10.1577 17.5989 11.6105C17.5989 14.0879 16.1182 16.3162 13.9099 17.2916L13.9101 16.2572C15.5805 15.3514 16.6571 13.5844 16.6571 11.646C16.6571 9.70676 15.5805 7.9396 13.9101 7.03386L13.91 5.96768ZM12.095 11.366L9.67943 12.976L9.63943 13.0033V16.4408L12.055 14.8307L12.095 14.8034V11.366ZM3.95459 11.366V14.8034L6.41108 16.4408V13.0033L3.95459 11.366ZM13.9106 8.58853C14.8449 9.30371 15.4152 10.4209 15.4152 11.626C15.4152 12.8311 14.8449 13.9482 13.9106 14.6634L13.9106 13.4983C14.3345 12.9741 14.5733 12.3164 14.5733 11.626C14.5733 10.9358 14.3347 10.2783 13.9111 9.75425L13.9106 8.58853ZM12.095 6.81845L9.67943 8.42853L9.63943 8.4549V11.856L12.055 10.245L12.095 10.2186V6.81845ZM3.95459 6.81845V10.2186L6.41108 11.856V8.4549L3.95459 6.81845ZM10.2995 2.95462H9.63943V7.30757L12.055 5.69749L12.095 5.67021V4.75108C12.095 3.76103 11.2895 2.95462 10.2995 2.95462V2.95462ZM6.41108 2.95462H5.75105C4.761 2.95462 3.95459 3.76103 3.95459 4.75108V5.67021L6.41108 7.30757V2.95462Z" fill="#184460"/>
</svg>
