<svg width="24" height="24" viewBox="0 0 24 24" fill="none" xmlns="http://www.w3.org/2000/svg">
<path fill-rule="evenodd" clip-rule="evenodd" d="M14.4912 14.8568L13.2227 13.5883L19.5655 7.24553C20.091 6.72 20.091 5.86812 19.5656 5.34274L20.8341 4.07422C21.1844 3.72391 21.1843 3.15585 20.834 2.80555L20.1997 2.17129C19.8494 1.82099 19.2815 1.82099 18.9312 2.17129L17.6627 3.43981C17.1373 2.91443 16.2854 2.91443 15.7599 3.43996L9.41733 9.78257L8.14866 8.5139C7.97358 8.33883 7.68963 8.33882 7.5144 8.51405L5.61162 10.4169C5.43639 10.5921 5.43639 10.876 5.61147 11.0511L6.24588 11.6855L4.6603 13.2711C4.48507 13.4463 4.48507 13.7303 4.66015 13.9054L4.97736 14.2226L2.12311 17.0768C1.59772 17.6022 1.59772 18.4541 2.12311 18.9795L2.75737 19.6137L2.44016 19.9309C2.26508 20.106 2.26508 20.39 2.44031 20.5652C2.61539 20.7403 2.89935 20.7403 3.07442 20.5652L3.39163 20.248L3.70883 20.5652L3.07457 21.1994C2.89935 21.3747 2.61539 21.3747 2.44016 21.1994L2.12311 20.8824C1.94788 20.7072 1.66392 20.7072 1.48884 20.8822C1.31362 21.0575 1.31362 21.3414 1.48884 21.5166L1.8059 21.8337C2.33143 22.3592 3.18331 22.3592 3.70883 21.8337L4.40145 21.1411C4.91406 21.386 5.52524 21.2823 5.92867 20.8824L8.78293 18.0281L9.09998 18.3452C9.27521 18.5204 9.55917 18.5204 9.73439 18.3452L11.3199 16.7596L11.9542 17.3939C12.1293 17.569 12.4134 17.5691 12.5886 17.3939L14.4914 15.4911C14.6666 15.3159 14.6665 15.0321 14.4912 14.8568ZM19.5655 2.80555L20.1997 3.43981L18.9312 4.70833L18.2969 4.07407L19.5655 2.80555ZM16.3942 4.07422C16.5694 3.89899 16.8533 3.89899 17.0284 4.07407L18.9314 5.977C19.1064 6.15208 19.1064 6.43604 18.9312 6.61126L12.5886 12.9539L10.0515 10.4169L16.3942 4.07422ZM6.24588 19.2967L3.70883 16.7596L4.34309 16.1254L6.88014 18.6624L6.24588 19.2967ZM4.6603 20.2481L2.75737 18.3452C2.58229 18.1701 2.58229 17.8862 2.75737 17.7111L3.07457 17.3939L5.61162 19.9309L5.29441 20.2481C5.11933 20.4232 4.83538 20.4232 4.6603 20.2481ZM7.5144 18.0281L4.97736 15.4911L5.61162 14.8568L8.14866 17.3939L7.5144 18.0281ZM9.41719 17.3939L5.61162 13.5883L6.88014 12.3198L10.6857 16.1254L9.41719 17.3939ZM12.2714 16.4426L6.56294 10.7341L7.83146 9.46551L13.5399 15.174L12.2714 16.4426Z" fill="#184460"/>
</svg>
