<svg width="24" height="24" viewBox="0 0 24 24" fill="none" xmlns="http://www.w3.org/2000/svg">
<path fill-rule="evenodd" clip-rule="evenodd" d="M18.5563 5.40674C18.2424 5.40674 17.9878 5.15222 17.9878 4.83825C17.9878 4.52429 18.2424 4.26977 18.5563 4.26977C18.8703 4.26977 19.1248 4.52429 19.1248 4.83825C19.1248 5.15222 18.8703 5.40674 18.5563 5.40674ZM20.5662 2.82816C21.1031 3.365 21.3988 4.07887 21.3988 4.8381C21.3988 5.59733 21.1031 6.31116 20.5662 6.84804C19.9755 7.43877 19.1684 7.73943 18.3208 7.67022L17.5133 9.63279L18.0493 10.1689C18.7142 10.8339 18.7142 11.9159 18.0493 12.5808L17.2453 13.3848C17.0232 13.6068 16.6633 13.6067 16.4413 13.3848L16.0393 12.9828L15.2353 13.7868L15.6373 14.1888C15.8593 14.4108 15.8593 14.7707 15.6373 14.9927C15.4153 15.2148 15.0554 15.2147 14.8334 14.9927L14.4314 14.5907L13.6274 15.3947L14.0294 15.7967C14.2514 16.0187 14.2514 16.3787 14.0294 16.6007C13.8074 16.8227 13.4474 16.8227 13.2254 16.6007L12.8234 16.1987L12.0194 17.0027L12.4214 17.4047C12.6435 17.6267 12.6435 17.9866 12.4214 18.2086L11.6175 19.0126C10.9526 19.6776 9.87053 19.6775 9.20559 19.0126L8.69626 18.5033L6.47852 19.6566C6.38442 20.0518 6.18374 20.4266 5.876 20.7343C4.98932 21.621 3.54669 21.621 2.66008 20.7343C1.77346 19.8476 1.77346 18.405 2.66008 17.5184C2.96785 17.2107 3.3426 17.01 3.73781 16.9159L4.8912 14.698L4.38187 14.1887C3.71693 13.5237 3.71693 12.4417 4.38187 11.7768L5.18586 10.9728C5.40787 10.7507 5.76784 10.7507 5.98981 10.9728L6.39181 11.3748L7.19576 10.5708L6.79377 10.1688C6.57176 9.94679 6.57176 9.58686 6.79377 9.36484C7.01578 9.14283 7.37575 9.14283 7.59772 9.36484L7.99972 9.76684L8.80371 8.96285L8.40171 8.56085C8.1797 8.33884 8.1797 7.97891 8.40171 7.7569C8.62376 7.53489 8.98373 7.53489 9.2057 7.7569L9.6077 8.1589L10.4117 7.35494L10.0097 6.95295C9.78772 6.73093 9.78772 6.37101 10.0097 6.14899L10.8136 5.34504C11.4786 4.6801 12.5606 4.68014 13.2256 5.34504L13.7617 5.88112L15.7242 5.07368C15.6548 4.22247 15.9581 3.41654 16.5464 2.8282C17.6574 1.71715 19.4555 1.71738 20.5662 2.82816ZM16.0445 6.17131L14.6327 6.75219L16.6423 8.76176L17.2231 7.34994C16.9771 7.21896 16.7491 7.05076 16.5464 6.84804C16.3437 6.64536 16.1755 6.41739 16.0445 6.17131ZM5.07205 19.9304C5.51539 19.487 5.51539 18.7657 5.07205 18.3224C4.62871 17.8791 3.90737 17.8791 3.46407 18.3224C3.02076 18.7657 3.02076 19.4871 3.46407 19.9304C3.90737 20.3737 4.62874 20.3737 5.07205 19.9304ZM6.42338 18.4038L7.85316 17.6602L5.73422 15.5413L4.99072 16.9711C5.31449 17.0791 5.61874 17.2612 5.87604 17.5185C6.13334 17.7758 6.31541 18.08 6.42338 18.4038ZM10.8136 18.2087L11.2156 17.8067L5.58778 12.1789L5.18582 12.5809C4.96415 12.8025 4.96415 13.1632 5.18582 13.3849C5.68162 13.8806 8.69335 16.8924 9.2057 17.4047C9.20574 17.4048 9.20578 17.4048 9.20582 17.4049L10.0097 18.2087C10.2313 18.4304 10.5919 18.4304 10.8136 18.2087ZM11.2156 16.1987L12.0196 15.3948L7.99972 11.3749L7.19573 12.1789L11.2156 16.1987ZM12.8236 14.5908L13.6275 13.7868L9.60766 9.76695L8.80367 10.571L12.8236 14.5908ZM14.4315 12.9829L15.2355 12.1789L11.2156 8.15901L10.4117 8.96296L14.4315 12.9829ZM17.2454 11.7769C17.4671 11.5553 17.4671 11.1945 17.2454 10.9729C16.6259 10.3534 13.2355 6.96299 12.4215 6.14907C12.1998 5.9274 11.8392 5.9274 11.6175 6.14907L11.2156 6.55103L16.8434 12.1789L17.2454 11.7769ZM19.7623 6.04405C20.0845 5.72195 20.2618 5.29365 20.2618 4.8381C20.2618 4.38252 20.0844 3.95426 19.7623 3.63215C19.0957 2.96554 18.0168 2.9657 17.3504 3.63215C16.6838 4.29872 16.6839 5.37763 17.3504 6.04405C18.017 6.71069 19.0959 6.71054 19.7623 6.04405Z" fill="#184460"/>
</svg>
