<svg width="24" height="24" viewBox="0 0 24 24" fill="none" xmlns="http://www.w3.org/2000/svg">
<path fill-rule="evenodd" clip-rule="evenodd" d="M1.15191 18.3747C1.36621 18.4173 1.31701 18.4088 1.44021 18.5169L5.3361 22.4127C5.5925 22.7051 5.5204 22.9097 5.3361 23.1198L4.761 23.695C4.4687 23.9513 4.26401 23.8792 4.05391 23.695L0.158005 19.7991C-0.0206949 19.5952 -0.0823949 19.366 0.158005 19.0919L0.733105 18.5169C0.831805 18.4303 0.876605 18.3567 1.15191 18.3747ZM4.75451 12.3498C4.96881 12.3924 4.91961 12.3839 5.04281 12.492L11.3944 18.8436C11.5732 19.0474 11.6348 19.2766 11.3944 19.5507L7.77411 23.171C7.57021 23.3498 7.34111 23.4114 7.06691 23.171L0.715405 16.8195C0.536605 16.6156 0.475005 16.3865 0.715405 16.1124L4.33571 12.492C4.43441 12.4054 4.47921 12.3317 4.75451 12.3498ZM1.77601 16.4659L7.4205 22.1104L10.3338 19.1971L4.68931 13.5526C3.71821 14.5237 2.74711 15.4948 1.77601 16.4659ZM9.16541 11.946C9.37971 11.9886 9.33041 11.9801 9.45371 12.0882L11.8579 14.4924C12.0367 14.6963 12.0983 14.9254 11.8579 15.1995L10.6778 16.3797C10.4739 16.5584 10.2448 16.6201 9.97071 16.3797L7.56641 13.9754C7.38771 13.7716 7.32601 13.5424 7.56641 13.2683L8.74661 12.0882C8.84531 12.0016 8.89001 11.928 9.16541 11.946ZM8.6271 13.6219L10.3242 15.319L10.7972 14.846L9.1001 13.1488C8.9424 13.3065 8.7848 13.4642 8.6271 13.6219ZM12.9656 9.33898C13.1799 9.38158 13.1306 9.37308 13.2538 9.48118L14.4666 10.6939C14.6454 10.8977 14.707 11.1269 14.4666 11.401L12.5076 13.36C12.2152 13.6163 12.0106 13.5442 11.8005 13.36L10.5878 12.1473C10.409 11.9434 10.3474 11.7143 10.5878 11.4401L12.5467 9.48118C12.754 9.29938 12.7812 9.32688 12.9656 9.33898ZM11.6484 11.7937L12.154 12.2993L13.4059 11.0474L12.9003 10.5418C12.483 10.9591 12.0657 11.3764 11.6484 11.7937ZM15.1586 2.01108C15.3729 2.05378 15.3237 2.04518 15.4469 2.15328L21.7467 8.45308C22.0031 8.74538 21.931 8.94998 21.7467 9.16018L19.7463 11.1606C19.5425 11.3393 19.3133 11.401 19.0392 11.1606L12.7395 4.86078C12.5607 4.65688 12.4991 4.42778 12.7395 4.15368L14.7398 2.15328C14.947 1.97158 14.9743 1.99908 15.1586 2.01108ZM13.95 7.16138C14.1643 7.20398 14.1151 7.19548 14.2383 7.30358L16.6425 9.70778C16.8213 9.91168 16.8829 10.1409 16.6425 10.415L16.2417 10.8157C15.9493 11.072 15.7447 11 15.5346 10.8157L13.1304 8.41148C12.874 8.11918 12.9461 7.91448 13.1304 7.70438L13.5312 7.30358C13.6299 7.21698 13.6746 7.14328 13.95 7.16138ZM13.8001 4.50718L19.3928 10.0999L20.686 8.80658L15.0934 3.21398C14.6623 3.64498 14.2312 4.07608 13.8001 4.50718ZM18.4869 1.00898C18.577 1.02688 18.6223 1.01708 18.7752 1.15118L22.8507 5.22658C23.1071 5.51898 23.035 5.72358 22.8507 5.93368L21.9611 6.82328C21.7572 7.00208 21.5281 7.06368 21.254 6.82328L17.1785 2.74788C16.9997 2.54398 16.9381 2.31488 17.1785 2.04078L18.0681 1.15118C18.2753 0.969479 18.3026 0.996879 18.4869 1.00898ZM18.2392 2.39428L21.6075 5.76268L21.79 5.58018L18.4217 2.21178C18.3608 2.27268 18.3 2.33348 18.2392 2.39428Z" fill="#184460"/>
</svg>
