<svg width="24" height="24" viewBox="0 0 24 24" fill="none" xmlns="http://www.w3.org/2000/svg">
<path fill-rule="evenodd" clip-rule="evenodd" d="M4.65545 10.6957L4.65537 10.4215C4.65521 10.0559 4.65505 9.6903 4.65745 9.3247C4.66445 8.4507 5.27245 7.8357 6.13645 7.8297C6.76945 7.8257 7.40245 7.8237 8.03445 7.8237C8.63145 7.8237 9.22745 7.8257 9.82445 7.8297C10.6385 7.8347 11.2595 8.4477 11.2685 9.2557C11.2815 10.5597 11.2825 11.9087 11.2685 13.3777C11.2605 14.1717 10.6255 14.7967 9.82145 14.7997C8.58645 14.8067 7.34845 14.8077 6.11245 14.7997C5.29145 14.7967 4.66545 14.1697 4.65745 13.3437C4.65345 12.8807 4.65445 12.4167 4.65545 11.9527L4.65645 11.3137L4.65545 10.6957ZM11.2465 6.9167C10.8165 6.6527 10.3455 6.5177 9.84645 6.5147L9.28245 6.5107C8.24945 6.5047 7.18245 6.4987 6.13245 6.5167C4.53145 6.5427 3.36345 7.7287 3.35445 9.3357C3.34645 10.8057 3.34145 12.1327 3.35945 13.4847C3.37745 14.8377 4.49445 16.0257 5.79945 16.0797C6.54045 16.1117 7.27945 16.1277 8.00945 16.1277C8.70845 16.1277 9.40045 16.1127 10.0805 16.0837C11.4525 16.0257 12.5705 14.8147 12.5725 13.3837C12.5795 10.4197 12.5805 7.4547 12.5725 4.4897C12.5685 3.0207 11.8125 1.9307 10.4455 1.4187C9.20145 0.953696 7.83245 0.876696 6.25945 1.1857C5.42545 1.3487 4.76845 1.6807 4.25045 2.1997C3.33645 3.1157 3.30845 4.2917 3.36645 5.0967C3.39045 5.4327 3.73745 5.6517 4.03545 5.6327C4.35745 5.6147 4.62145 5.3657 4.65045 5.0527C4.65845 4.9547 4.65745 4.8567 4.65645 4.7587L4.65545 4.6457C4.65745 3.5507 5.14345 2.8857 6.18445 2.5537C7.03745 2.2807 7.91845 2.2967 8.59045 2.3427C9.18845 2.3827 9.66245 2.4907 10.0835 2.6827C10.8165 3.0187 11.2045 3.5467 11.2365 4.2517C11.2661 4.9167 11.2596 5.56994 11.2527 6.26086L11.2525 6.2827L11.2465 6.9167ZM19.6185 13.5568V13.5578C19.6154 14.3758 18.9495 15.0408 18.1325 15.0408H18.1315C17.3125 15.0398 16.6445 14.3718 16.6425 13.5528C16.6425 13.1568 16.7975 12.7828 17.0795 12.5008C17.3625 12.2198 17.7375 12.0658 18.1364 12.0658H18.1455C18.9605 12.0688 19.6215 12.7388 19.6185 13.5568ZM19.3545 11.0458C18.2835 10.5238 17.2365 10.6558 16.3275 11.4278C15.4335 12.1878 15.1314 13.1928 15.4555 14.3338C15.7304 15.3008 16.3875 15.9478 17.4085 16.2528C17.4264 16.2588 17.4555 16.2778 17.4725 16.2928L17.4745 16.4948C17.4804 16.8298 17.4855 17.1748 17.4435 17.5028C17.2225 19.2258 15.9625 20.5518 14.2315 20.8808C12.5914 21.1918 10.9425 20.4028 10.1125 18.9198C9.94745 18.6238 9.71245 18.4848 9.37345 18.4848H9.36145C8.76145 18.4908 8.16445 18.4898 7.56645 18.4888L6.08145 18.4878C5.28845 18.4868 4.49445 18.4868 3.70145 18.4898C3.44645 18.4908 3.22045 18.6088 3.09545 18.8048C2.97945 18.9908 2.96845 19.2138 3.06645 19.4208C3.22745 19.7598 3.54545 19.7998 3.77145 19.7998C4.73845 19.7978 5.70645 19.7978 6.67345 19.7978L8.99545 19.7968C9.08845 19.7968 9.11845 19.8108 9.16245 19.8738C10.2575 21.4438 11.7155 22.2358 13.5035 22.2358C13.7645 22.2358 14.0325 22.2188 14.3085 22.1848C16.4835 21.9178 18.3725 20.0818 18.7005 17.9138C18.7605 17.5218 18.7785 17.1338 18.7965 16.7238L18.7978 16.6937C18.8044 16.5513 18.811 16.4065 18.8195 16.2608L18.8535 16.2508C20.0564 15.9228 20.8874 14.8838 20.9205 13.6658C20.9535 12.4678 20.4125 11.5618 19.3545 11.0458ZM7.96215 12.8968H7.96015C7.57715 12.8938 7.30815 12.6008 7.30515 12.1838C7.30215 11.6448 7.30215 11.1048 7.30515 10.5658C7.30815 10.1548 7.58415 9.8578 7.96215 9.8578H7.96515C8.34015 9.8588 8.60815 10.1418 8.61815 10.5458C8.62215 10.7398 8.62115 10.9348 8.62015 11.1278L8.61915 11.3788L8.62015 11.6278C8.62115 11.8148 8.62215 12.0018 8.61815 12.1898C8.61015 12.6128 8.34615 12.8968 7.96215 12.8968Z" fill="#184460"/>
</svg>
