<svg width="24" height="24" viewBox="0 0 24 24" fill="none" xmlns="http://www.w3.org/2000/svg">
<path fill-rule="evenodd" clip-rule="evenodd" d="M21.952 16.5537L19.8154 6.93851C19.6356 6.12922 18.931 5.56403 18.102 5.56403H5.85932C5.03029 5.56403 4.32569 6.12922 4.14591 6.93851L2.00917 16.5537C1.94036 16.8632 2.13075 17.1713 2.43839 17.2482C5.46247 18.0042 8.67234 18.4187 11.9806 18.4187C15.2027 18.4187 18.4174 18.0246 21.5228 17.2482C21.8305 17.1713 22.0208 16.8632 21.952 16.5537ZM5.28812 7.19236C5.34811 6.9226 5.58296 6.7342 5.85932 6.7342H18.1019C18.3782 6.7342 18.6131 6.9226 18.6731 7.19236L18.8313 7.90438H5.12991L5.28812 7.19236ZM17.7843 16.8065L17.2853 16.1828V13.1701C17.2853 12.847 17.0234 12.585 16.7003 12.585C16.3771 12.585 16.1152 12.847 16.1152 13.1701V14.7201L13.6466 11.6344C13.4448 11.3821 13.0766 11.3412 12.8243 11.5431C12.572 11.7449 12.531 12.1131 12.7329 12.3655L16.4322 16.9896C14.6393 17.1989 12.8328 17.281 11.0291 17.2363L10.1864 16.1829V13.1701C10.1864 12.847 9.92443 12.585 9.60131 12.585C9.27818 12.585 9.01622 12.847 9.01622 13.1701V14.7202L6.54769 11.6345C6.34584 11.3822 5.9777 11.3413 5.72533 11.5431C5.473 11.745 5.43209 12.1132 5.63398 12.3655L9.47442 17.1661C7.38924 17.0298 5.31441 16.7241 3.27608 16.2471L4.86993 9.07459H19.0914L20.6852 16.2471C19.7255 16.4716 18.7575 16.6575 17.7843 16.8065Z" fill="#184460"/>
</svg>
