<svg width="24" height="24" viewBox="0 0 24 24" fill="none" xmlns="http://www.w3.org/2000/svg">
<path fill-rule="evenodd" clip-rule="evenodd" d="M6.98785 14.2168C8.5293 14.2168 9.78328 15.4708 9.78328 17.0123C9.78328 18.5537 8.5293 19.8077 6.98785 19.8077C5.4464 19.8077 4.19241 18.5537 4.19241 17.0123C4.19241 15.4708 5.4464 14.2168 6.98785 14.2168ZM6.98785 18.6375C7.88414 18.6375 8.61311 17.9084 8.61311 17.0123C8.61311 16.116 7.88414 15.387 6.98785 15.387C6.09171 15.387 5.36258 16.116 5.36258 17.0123C5.36258 17.9084 6.09171 18.6375 6.98785 18.6375ZM13.6196 8.40934C12.4766 8.40934 11.5467 7.47946 11.5467 6.33647C11.5467 5.19347 12.4766 4.26359 13.6196 4.26359C14.7626 4.26359 15.6925 5.19347 15.6925 6.33647C15.6925 7.47946 14.7626 8.40934 13.6196 8.40934ZM13.6196 5.43376C13.1217 5.43376 12.7169 5.83878 12.7169 6.33647C12.7169 6.8343 13.1217 7.23917 13.6196 7.23917C14.1173 7.23917 14.5223 6.8343 14.5223 6.33647C14.5223 5.83878 14.1173 5.43376 13.6196 5.43376ZM21.966 15.8616C21.966 16.922 21.2777 17.8243 20.3246 18.1464L20.3247 18.1469L20.3083 18.1521C20.2788 18.1617 20.2489 18.1708 20.2188 18.1795L8.52746 21.7743L8.52395 21.7629C8.0397 21.9198 7.52355 22.005 6.98785 22.005C4.23485 22.005 1.99512 19.7653 1.99512 17.0123C1.99512 16.0042 2.29571 15.0652 2.81157 14.2796L2.81004 14.2785L2.90866 14.1367C2.91187 14.1323 2.91477 14.1278 2.91797 14.1234L10.0107 3.92269L10.0121 3.92361C10.7919 2.76153 12.1178 1.995 13.6196 1.995C15.5685 1.995 17.2214 3.28593 17.7687 5.05745L21.6653 14.6968C21.8567 15.0423 21.966 15.4394 21.966 15.8616ZM17.9435 17.655C17.4521 17.213 17.1425 16.5729 17.1423 15.8616C17.1423 14.5316 18.2244 13.4497 19.5542 13.4497C19.675 13.4497 19.7936 13.459 19.9096 13.4761L17.6627 7.91792C17.0293 9.53203 15.4557 10.6779 13.6196 10.6779C11.4377 10.6779 9.62695 9.06015 9.32315 6.96132L5.68608 12.1921C6.10133 12.0797 6.53764 12.0195 6.98785 12.0195C9.74084 12.0195 11.9806 14.2593 11.9806 17.0123C11.9806 18.0173 11.6818 18.9537 11.1689 19.7379L17.9435 17.655ZM13.6196 3.16517C11.871 3.16517 10.4483 4.58785 10.4483 6.33647C10.4483 8.08508 11.871 9.50776 13.6196 9.50776C15.3682 9.50776 16.7909 8.08508 16.7909 6.33647C16.7909 4.58785 15.3682 3.16517 13.6196 3.16517ZM3.16529 17.0123C3.16529 19.12 4.88017 20.8348 6.98785 20.8348C9.09568 20.8348 10.8104 19.12 10.8104 17.0123C10.8104 14.9044 9.09568 13.1897 6.98785 13.1897C5.71096 13.1897 4.57835 13.8191 3.88388 14.784L3.8106 14.8892C3.40329 15.4969 3.16529 16.2273 3.16529 17.0123ZM19.9579 17.0355C20.4449 16.8675 20.7959 16.405 20.7959 15.8616C20.7959 15.1769 20.2389 14.6199 19.5542 14.6199C18.8695 14.6199 18.3126 15.1769 18.3126 15.8615C18.3126 16.5462 18.8695 17.1033 19.5542 17.1033C19.6652 17.1033 19.7727 17.0885 19.8751 17.061L19.9579 17.0355Z" fill="#184460"/>
</svg>
