<svg width="24" height="24" viewBox="0 0 24 24" fill="none" xmlns="http://www.w3.org/2000/svg">
<path fill-rule="evenodd" clip-rule="evenodd" d="M21.1275 9.83211C21.2005 9.75811 21.2555 9.67211 21.2935 9.57711C21.3305 9.48411 21.3485 9.38611 21.3485 9.28411C21.3485 9.18711 21.3315 9.09211 21.2975 9.00311C21.2635 8.91111 21.2115 8.82811 21.1465 8.75611L21.1435 8.75311C21.0685 8.67211 20.9785 8.60811 20.8775 8.56411C20.7515 8.50911 20.6115 8.48911 20.4725 8.50711C20.3245 8.52211 20.1695 8.47211 20.0625 8.36511L15.9725 4.27611C15.8645 4.16711 15.8135 4.01711 15.8325 3.86511C15.8355 3.83611 15.8375 3.80411 15.8375 3.77211C15.8375 3.66511 15.8155 3.55711 15.7735 3.46111C15.7295 3.35911 15.6655 3.26811 15.5815 3.19111C15.5095 3.12611 15.4265 3.07511 15.3345 3.03911C15.1515 2.97111 14.9415 2.97211 14.7605 3.04511C14.6655 3.08211 14.5795 3.13811 14.5055 3.21011C14.4285 3.28511 14.3695 3.37311 14.3275 3.47211C14.2895 3.56611 14.2695 3.66711 14.2695 3.77111C14.2695 3.89511 14.2985 4.01911 14.3555 4.12911C14.4545 4.32111 14.4175 4.55211 14.2655 4.70511L12.9175 6.05311C12.7625 6.20511 12.5315 6.24211 12.3405 6.14311C12.1425 6.04011 11.8955 6.03011 11.6875 6.11511C11.5905 6.15411 11.5035 6.21111 11.4285 6.28711C11.3535 6.36211 11.2955 6.44911 11.2565 6.54511C11.2185 6.63811 11.1995 6.73611 11.1995 6.83611C11.1995 6.96611 11.2285 7.08811 11.2855 7.19911C11.3835 7.39111 11.3475 7.62211 11.1945 7.77511L9.84649 9.12311C9.69349 9.27611 9.46249 9.31311 9.27049 9.21311C9.07149 9.11211 8.82749 9.09911 8.61749 9.18511C8.52049 9.22411 8.43349 9.28211 8.35849 9.35711C8.28349 9.43211 8.22549 9.51911 8.18649 9.61511C8.14749 9.70911 8.12849 9.80711 8.12849 9.90711C8.12849 10.0341 8.15849 10.1591 8.21449 10.2691C8.31349 10.4621 8.27649 10.6931 8.12449 10.8451L6.77649 12.1931C6.62249 12.3461 6.39249 12.3811 6.19949 12.2831C6.00449 12.1841 5.75649 12.1691 5.54649 12.2551C5.45049 12.2941 5.36349 12.3521 5.28849 12.4271C5.21249 12.5031 5.15549 12.5901 5.11649 12.6861C5.07749 12.7811 5.05849 12.8811 5.05849 12.9831C5.05849 13.1071 5.08849 13.2291 5.14449 13.3391C5.24349 13.5311 5.20749 13.7621 5.05449 13.9151L3.70649 15.2641C3.55349 15.4171 3.32149 15.4521 3.12949 15.3531C2.92949 15.2501 2.68349 15.2401 2.47249 15.3271C2.37549 15.3671 2.28749 15.4261 2.21149 15.5041C2.14049 15.5771 2.08449 15.6631 2.04649 15.7581C2.00949 15.8511 1.99049 15.9511 1.99049 16.0531C1.99049 16.1501 2.00749 16.2441 2.04149 16.3331C2.07549 16.4241 2.12649 16.5071 2.19249 16.5791C2.26949 16.6631 2.35949 16.7271 2.46149 16.7721C2.58949 16.8271 2.72949 16.8461 2.86949 16.8301C2.88949 16.8271 2.90949 16.8261 2.92949 16.8261C3.05749 16.8261 3.18249 16.8771 3.27649 16.9711L7.36649 21.0611C7.47449 21.1691 7.52649 21.3181 7.50849 21.4701C7.50449 21.5031 7.50249 21.5341 7.50249 21.5661C7.50249 21.6731 7.52349 21.7781 7.56549 21.8761C7.60949 21.9771 7.67449 22.0681 7.75849 22.1451C7.83049 22.2111 7.91349 22.2621 8.00449 22.2971C8.18649 22.3661 8.39649 22.3651 8.57849 22.2911C8.67449 22.2531 8.76049 22.1981 8.83349 22.1261C8.91149 22.0511 8.97049 21.9631 9.01049 21.8651C9.05049 21.7691 9.06949 21.6691 9.06949 21.5651C9.06949 21.4411 9.04049 21.3171 8.98349 21.2081C8.88549 21.0151 8.92149 20.7841 9.07449 20.6321L10.4225 19.2831C10.5755 19.1311 10.8075 19.0941 10.9985 19.1931C11.1985 19.2961 11.4415 19.3081 11.6515 19.2221C11.7485 19.1821 11.8355 19.1241 11.9115 19.0491C11.9855 18.9741 12.0435 18.8871 12.0825 18.7901C12.1215 18.6971 12.1405 18.5981 12.1405 18.4951C12.1405 18.3711 12.1105 18.2471 12.0545 18.1381C11.9555 17.9461 11.9915 17.7141 12.1455 17.5611L13.4925 16.2131C13.6455 16.0601 13.8765 16.0241 14.0685 16.1231C14.2685 16.2241 14.5115 16.2371 14.7215 16.1511C14.8185 16.1121 14.9055 16.0551 14.9805 15.9791C15.0555 15.9041 15.1135 15.8171 15.1525 15.7201C15.1915 15.6261 15.2105 15.5271 15.2105 15.4251C15.2105 15.3011 15.1805 15.1771 15.1245 15.0681C15.0255 14.8751 15.0625 14.6441 15.2145 14.4911L16.5625 13.1431C16.7165 12.9901 16.9475 12.9551 17.1395 13.0531C17.3365 13.1561 17.5835 13.1651 17.7915 13.0811C17.8885 13.0421 17.9765 12.9841 18.0505 12.9091C18.1255 12.8341 18.1835 12.7471 18.2235 12.6491C18.2615 12.5561 18.2805 12.4571 18.2805 12.3551C18.2805 12.2301 18.2515 12.1061 18.1945 11.9971C18.0955 11.8051 18.1325 11.5741 18.2845 11.4211L19.6325 10.0731C19.7865 9.92011 20.0175 9.88411 20.2095 9.98311C20.4095 10.0851 20.6585 10.0951 20.8655 10.0101C20.9645 9.96911 21.0525 9.90911 21.1275 9.83211ZM21.8765 8.08811C22.0275 8.25311 22.1445 8.44311 22.2235 8.65211C22.2995 8.85411 22.3385 9.06611 22.3385 9.28411C22.3385 9.51011 22.2965 9.73111 22.2135 9.94111C22.1275 10.1601 22.0005 10.3551 21.8365 10.5231C21.6675 10.6981 21.4675 10.8321 21.2445 10.9251C20.8855 11.0721 20.4825 11.0981 20.1085 10.9981L19.2105 11.8961C19.2505 12.0461 19.2705 12.2001 19.2705 12.3551C19.2705 12.5861 19.2265 12.8101 19.1405 13.0221C19.0515 13.2421 18.9205 13.4391 18.7515 13.6091C18.5815 13.7791 18.3835 13.9101 18.1645 13.9991C17.8085 14.1431 17.4085 14.1671 17.0385 14.0681L16.1395 14.9671C16.1805 15.1171 16.2005 15.2711 16.2005 15.4251C16.2005 15.6551 16.1565 15.8801 16.0695 16.0931C15.9815 16.3121 15.8505 16.5101 15.6815 16.6791C15.5115 16.8481 15.3145 16.9791 15.0935 17.0691C14.7355 17.2141 14.3385 17.2391 13.9675 17.1381L13.0695 18.0361C13.1095 18.1861 13.1305 18.3401 13.1305 18.4951C13.1305 18.7251 13.0865 18.9501 13.0005 19.1621C12.9105 19.3831 12.7795 19.5801 12.6105 19.7491C12.4415 19.9191 12.2435 20.0501 12.0235 20.1391C11.6675 20.2841 11.2685 20.3081 10.8975 20.2081L9.99949 21.1071C10.0395 21.2571 10.0605 21.4101 10.0605 21.5651C10.0605 21.7991 10.0145 22.0261 9.92649 22.2421C9.83449 22.4661 9.69849 22.6651 9.52449 22.8351C9.35649 22.9981 9.16149 23.1251 8.94349 23.2121C8.73449 23.2951 8.51249 23.3381 8.28549 23.3381C8.06949 23.3381 7.85749 23.2991 7.65549 23.2231C7.44449 23.1431 7.25449 23.0261 7.08949 22.8751C6.90249 22.7031 6.75649 22.4991 6.65749 22.2681C6.56649 22.0581 6.51849 21.8361 6.51249 21.6071L2.72849 17.8231C2.47849 17.8141 2.26849 17.7661 2.06949 17.6811C1.83749 17.5811 1.63349 17.4351 1.46149 17.2471C1.31049 17.0811 1.19349 16.8911 1.11549 16.6831C1.03949 16.4801 1.00049 16.2681 1.00049 16.0531C1.00049 15.8261 1.04249 15.6041 1.12649 15.3931C1.21349 15.1751 1.34049 14.9791 1.50349 14.8121C1.67449 14.6381 1.87349 14.5031 2.09649 14.4111C2.45549 14.2641 2.85549 14.2371 3.23149 14.3381L4.12949 13.4401C4.08849 13.2901 4.06849 13.1371 4.06849 12.9831C4.06849 12.7521 4.11249 12.5281 4.19849 12.3151C4.28749 12.0951 4.41849 11.8961 4.58749 11.7271C4.75649 11.5581 4.95349 11.4281 5.17149 11.3381C5.53349 11.1921 5.93149 11.1691 6.30149 11.2681L7.19949 10.3701C7.15949 10.2191 7.13849 10.0641 7.13849 9.90711C7.13849 9.67811 7.18349 9.45311 7.27049 9.24111C7.35849 9.02211 7.48949 8.82611 7.65849 8.65711C7.82749 8.48811 8.02549 8.35711 8.24549 8.26711C8.60149 8.12211 8.99649 8.09711 9.37149 8.19811L10.2705 7.30011C10.2295 7.14911 10.2095 6.99411 10.2095 6.83611C10.2095 6.60711 10.2525 6.38311 10.3395 6.17011C10.4295 5.95211 10.5605 5.75611 10.7285 5.58711C10.8975 5.41811 11.0945 5.28611 11.3155 5.19711C11.6705 5.05411 12.0685 5.02811 12.4415 5.12811L13.3395 4.22911C13.2995 4.07911 13.2795 3.92611 13.2795 3.77111C13.2795 3.53611 13.3245 3.30811 13.4135 3.09411C13.5045 2.87111 13.6395 2.67211 13.8145 2.50211C13.9815 2.33811 14.1775 2.21111 14.3955 2.12411C14.8075 1.96211 15.2725 1.95911 15.6855 2.11411C15.8945 2.19311 16.0845 2.30911 16.2505 2.46111C16.4375 2.63311 16.5835 2.83711 16.6825 3.06911C16.7725 3.28011 16.8215 3.50111 16.8265 3.72911L20.6105 7.51311C20.8605 7.52211 21.0705 7.57011 21.2695 7.65511C21.5015 7.75511 21.7055 7.90111 21.8765 8.08811ZM11.0835 14.622C11.0355 14.748 10.9635 14.863 10.8725 14.961C10.7685 15.071 10.6475 15.155 10.5135 15.213C10.2505 15.323 9.94949 15.323 9.68649 15.213C9.55049 15.155 9.42949 15.07 9.32749 14.961C9.23449 14.863 9.16349 14.748 9.11549 14.622C9.06749 14.498 9.04349 14.367 9.04349 14.233C9.04349 14.101 9.06749 13.974 9.11549 13.852C9.16349 13.727 9.23449 13.614 9.32649 13.516C9.42949 13.407 9.55049 13.323 9.68649 13.265C9.81749 13.209 9.95749 13.181 10.1005 13.181C10.2435 13.181 10.3815 13.209 10.5125 13.265C10.6485 13.322 10.7695 13.407 10.8715 13.516L10.8745 13.519C10.9645 13.616 11.0355 13.728 11.0835 13.852C11.1305 13.975 11.1545 14.102 11.1545 14.233C11.1545 14.367 11.1305 14.498 11.0835 14.622ZM11.5935 12.839C11.3955 12.628 11.1625 12.465 10.8995 12.353C10.3925 12.138 9.81049 12.138 9.30049 12.353C9.03649 12.465 8.80249 12.628 8.60449 12.839C8.42649 13.029 8.28749 13.249 8.19249 13.494C8.10049 13.73 8.05349 13.979 8.05349 14.233C8.05349 14.489 8.09949 14.739 8.18949 14.975C8.28449 15.222 8.42349 15.445 8.60449 15.639C8.80349 15.85 9.03749 16.013 9.30049 16.124C9.55549 16.232 9.82449 16.287 10.1005 16.287C10.3765 16.287 10.6455 16.232 10.8995 16.124C11.1625 16.012 11.3965 15.849 11.5935 15.638C11.7745 15.445 11.9145 15.222 12.0085 14.975C12.0985 14.738 12.1455 14.488 12.1455 14.233C12.1455 13.979 12.0985 13.731 12.0065 13.494C11.9115 13.25 11.7725 13.029 11.5935 12.839ZM7.94339 17.7636C7.89439 17.8896 7.82239 18.0036 7.73139 18.1016C7.62939 18.2106 7.50739 18.2956 7.37239 18.3536C7.11039 18.4636 6.80739 18.4646 6.54539 18.3536C6.41039 18.2966 6.28939 18.2116 6.18639 18.1026C6.09339 18.0036 6.02239 17.8906 5.97439 17.7646C5.92639 17.6406 5.90239 17.5116 5.90239 17.3796C5.90239 17.2476 5.92639 17.1176 5.97439 16.9946C6.02239 16.8686 6.09339 16.7556 6.18639 16.6566C6.28839 16.5476 6.40939 16.4636 6.54639 16.4056C6.67639 16.3496 6.81539 16.3216 6.95939 16.3216C7.10239 16.3216 7.24139 16.3496 7.37139 16.4056C7.50639 16.4626 7.62739 16.5466 7.72839 16.6546L7.73039 16.6566C7.82339 16.7546 7.89439 16.8676 7.94339 16.9946C7.99039 17.1166 8.01439 17.2456 8.01439 17.3786C8.01439 17.5116 7.99039 17.6416 7.94339 17.7636ZM8.45239 15.9796C8.25539 15.7686 8.02139 15.6046 7.75839 15.4936C7.25139 15.2786 6.66839 15.2786 6.15939 15.4936C5.89539 15.6056 5.66139 15.7686 5.46439 15.9796C5.28439 16.1706 5.14539 16.3926 5.05039 16.6386C4.95939 16.8756 4.91239 17.1246 4.91239 17.3796C4.91239 17.6346 4.95939 17.8836 5.05039 18.1196C5.14439 18.3656 5.28439 18.5876 5.46439 18.7796C5.66339 18.9916 5.89739 19.1546 6.16039 19.2646C6.41439 19.3726 6.68339 19.4276 6.95939 19.4276C7.23539 19.4276 7.50439 19.3726 7.75839 19.2646C8.02239 19.1526 8.25539 18.9896 8.45339 18.7786C8.63339 18.5866 8.77239 18.3656 8.86639 18.1196C8.95839 17.8826 9.00439 17.6336 9.00439 17.3786C9.00439 17.1236 8.95839 16.8746 8.86639 16.6386C8.77239 16.3936 8.63239 16.1716 8.45239 15.9796ZM17.3545 8.37101C17.2975 8.50601 17.2125 8.62701 17.1025 8.73001C17.0045 8.82201 16.8915 8.89301 16.7655 8.94201C16.5195 9.03601 16.2405 9.03601 15.9955 8.94101C15.8705 8.89301 15.7565 8.82201 15.6585 8.73001C15.5485 8.62601 15.4635 8.50601 15.4065 8.37001C15.3515 8.24001 15.3235 8.10201 15.3235 7.95901C15.3235 7.81501 15.3515 7.67501 15.4065 7.54401C15.4635 7.40901 15.5485 7.28801 15.6585 7.18501C15.7565 7.09201 15.8705 7.02101 15.9965 6.97301C16.1185 6.92601 16.2485 6.90201 16.3805 6.90201C16.5135 6.90201 16.6435 6.92601 16.7665 6.97301C16.8915 7.02101 17.0045 7.09201 17.1035 7.18401C17.2125 7.28801 17.2975 7.40801 17.3545 7.54301C17.4105 7.67501 17.4375 7.81401 17.4375 7.95701C17.4375 8.10101 17.4105 8.24001 17.3545 8.37101ZM17.7815 6.46401C17.5895 6.28301 17.3675 6.14301 17.1225 6.04901C16.6495 5.86701 16.1115 5.86701 15.6405 6.04901C15.3955 6.14301 15.1735 6.28201 14.9805 6.46301C14.7705 6.66001 14.6075 6.89401 14.4955 7.15901C14.3875 7.41201 14.3335 7.68201 14.3335 7.95901C14.3335 8.23501 14.3875 8.50301 14.4955 8.75701C14.6065 9.01901 14.7695 9.25301 14.9805 9.45101C15.1715 9.63101 15.3935 9.77001 15.6395 9.86501C15.8765 9.95601 16.1255 10.003 16.3805 10.003C16.6355 10.003 16.8845 9.95601 17.1205 9.86501C17.3655 9.77101 17.5875 9.63201 17.7805 9.45201C17.9915 9.25401 18.1545 9.02001 18.2665 8.75701C18.3735 8.50401 18.4285 8.23501 18.4285 7.95701C18.4285 7.68101 18.3735 7.41201 18.2665 7.15801C18.1545 6.89401 17.9915 6.66001 17.7815 6.46401ZM13.9629 11.8701C14.0709 11.7681 14.1559 11.6471 14.2139 11.5111C14.2689 11.3831 14.2969 11.2401 14.2969 11.0991C14.2969 10.9551 14.2699 10.8161 14.2139 10.6851C14.1569 10.5501 14.0729 10.4291 13.9649 10.3271L13.9629 10.3261C13.8639 10.2331 13.7499 10.1621 13.6239 10.1141C13.4999 10.0661 13.3689 10.0421 13.2339 10.0421C13.1029 10.0421 12.9749 10.0661 12.8539 10.1141C12.7289 10.1621 12.6149 10.2341 12.5169 10.3261C12.4079 10.4281 12.3229 10.5491 12.2669 10.6851H12.2659C12.2109 10.8161 12.1829 10.9551 12.1829 11.0991C12.1829 11.2401 12.2119 11.3831 12.2659 11.5111C12.3229 11.6471 12.4079 11.7671 12.5169 11.8701C12.6149 11.9621 12.7289 12.0331 12.8539 12.0821C13.1009 12.1781 13.3799 12.1761 13.6239 12.0821C13.7499 12.0331 13.8639 11.9621 13.9629 11.8701ZM13.9769 9.18811C14.2249 9.28411 14.4479 9.42411 14.6399 9.60411C14.8519 9.80311 15.0149 10.0361 15.1259 10.3001C15.2329 10.5531 15.2879 10.8221 15.2879 11.0991C15.2879 11.3751 15.2329 11.6431 15.1259 11.8971C15.0139 12.1611 14.8499 12.3951 14.6399 12.5921C14.4459 12.7731 14.2239 12.9121 13.9769 13.0071C13.7399 13.0971 13.4899 13.1431 13.2339 13.1431C12.9809 13.1431 12.7319 13.0961 12.4949 13.0051C12.2519 12.9101 12.0309 12.7711 11.8399 12.5921C11.6299 12.3951 11.4659 12.1611 11.3549 11.8981C11.2469 11.6431 11.1929 11.3751 11.1929 11.0991C11.1929 10.8221 11.2469 10.5531 11.3549 10.2991C11.4649 10.0361 11.6289 9.80311 11.8399 9.60411C12.0309 9.42411 12.2519 9.28511 12.4949 9.19111C12.9719 9.00711 13.5069 9.00911 13.9769 9.18811Z" fill="#184460"/>
</svg>
