<svg width="24" height="24" viewBox="0 0 24 24" fill="none" xmlns="http://www.w3.org/2000/svg">
<path fill-rule="evenodd" clip-rule="evenodd" d="M21.841 11.4564C21.7163 11.3289 21.5273 11.2616 21.2926 11.2616C20.4202 11.2608 19.5478 11.2608 18.6745 11.2608H18.6178C18.6307 11.2459 18.6436 11.2319 18.6573 11.2188L20.9015 8.93579C20.9445 8.89386 20.9866 8.85107 21.0227 8.80303C21.18 8.59342 21.1998 8.36197 21.0803 8.13314C20.9539 7.89208 20.7416 7.77679 20.5079 7.82483C20.3411 7.85977 20.1718 7.9506 20.054 8.06851C19.4988 8.62486 18.947 9.1847 18.3951 9.74455C17.9301 10.2162 17.466 10.6878 16.9993 11.1568C16.9451 11.2118 16.8428 11.2555 16.7664 11.2564C15.7195 11.2625 14.6717 11.2608 13.6257 11.2608H13.1417C13.1331 11.2608 13.1245 11.2599 13.116 11.259L13.2904 10.9498C13.8551 9.94892 14.419 8.94889 14.9897 7.95235C15.0181 7.90344 15.0963 7.85016 15.1694 7.8292C16.0366 7.58727 16.9039 7.34883 17.7711 7.10952C18.3075 6.96192 18.843 6.81519 19.3793 6.66671C19.7541 6.5619 19.9457 6.25534 19.8572 5.90249C19.8177 5.74441 19.7265 5.61864 19.5942 5.54003C19.4472 5.45269 19.2607 5.43261 19.069 5.48414C18.6582 5.59506 18.2473 5.70773 17.8373 5.82039L15.8871 6.35404C15.8957 6.33831 15.9051 6.32259 15.9137 6.30687L16.2489 5.71384C16.579 5.13129 16.909 4.54961 17.2305 3.96269C17.3096 3.82032 17.35 3.6439 17.3388 3.49193C17.3225 3.2465 17.1145 3.03165 16.8566 2.99235C16.5781 2.9478 16.3589 3.06134 16.2145 3.3155C15.9206 3.83255 15.6275 4.35047 15.3352 4.86927L14.8616 5.70773C14.8548 5.71995 14.8479 5.73131 14.8402 5.74353L14.6407 4.99416C14.4241 4.18016 14.2007 3.33996 13.9712 2.5146C13.9299 2.36962 13.8199 2.21153 13.685 2.10323C13.4993 1.95475 13.2243 1.96698 13.0154 2.13642C12.8005 2.30935 12.736 2.5443 12.8186 2.85435L13.1606 4.13911C13.4237 5.1243 13.6858 6.10861 13.9514 7.09293C13.9824 7.20821 13.972 7.29031 13.9145 7.38813C13.7709 7.63094 13.6325 7.87723 13.495 8.1244L12.002 10.7673L11.7545 10.3297C11.1898 9.33318 10.6251 8.33664 10.0672 7.3366C10.0397 7.28769 10.0337 7.18987 10.0535 7.11563C10.2864 6.22477 10.5236 5.33391 10.76 4.44393L11.1709 2.89278C11.1992 2.78797 11.225 2.67618 11.2173 2.56438C11.1992 2.27966 10.9706 2.04209 10.6861 2.01153C10.3844 1.98445 10.1214 2.16437 10.0354 2.47268C9.94345 2.80195 9.85664 3.13209 9.76983 3.4631L9.16215 5.74441C9.15269 5.72869 9.1441 5.71297 9.1355 5.69724L8.78825 5.085C8.46335 4.50943 8.13845 3.93386 7.81441 3.35742C7.73448 3.21593 7.59953 3.02379 7.33824 2.9906C7.09241 2.95916 6.8973 3.04475 6.76322 3.23602C6.61538 3.44913 6.60764 3.68757 6.74173 3.92513C7.19899 4.73477 7.65712 5.5444 8.11267 6.35404L7.06405 6.06669C6.35064 5.87018 5.63724 5.67541 4.92384 5.48064C4.72614 5.42562 4.53447 5.45269 4.38319 5.55575C4.24653 5.64746 4.158 5.79157 4.13479 5.96276C4.08666 6.31299 4.27489 6.57326 4.65223 6.67719L5.54097 6.92174C6.62913 7.22044 7.71729 7.52002 8.8063 7.81435C8.9232 7.84666 8.99282 7.90082 9.05385 8.00999C9.52143 8.84583 9.99245 9.67817 10.4635 10.5114L10.8545 11.2031C10.8649 11.2215 10.8752 11.2407 10.8855 11.2608H10.3251C9.16043 11.2608 8.02328 11.2608 6.88355 11.2564C6.84401 11.2564 6.77869 11.2188 6.72712 11.1664C6.28016 10.7184 5.83665 10.2677 5.39314 9.81617L5.07339 9.49039C4.58432 8.99343 4.09611 8.49647 3.60619 8.00038C3.41623 7.80824 3.18588 7.75933 2.94091 7.85977C2.71572 7.95147 2.58593 8.13576 2.56788 8.39166C2.55069 8.62923 2.67962 8.79342 2.80683 8.92443C3.38959 9.51223 3.96976 10.1026 4.54908 10.6931L5.07081 11.2232C5.08285 11.2354 5.09488 11.2485 5.10605 11.2608L4.44766 11.2599C3.84857 11.2608 3.24948 11.2608 2.6504 11.2625C2.44325 11.2625 2.26361 11.3385 2.14328 11.4765C2.03326 11.604 1.98341 11.7726 2.00489 11.9525C2.04357 12.2774 2.30143 12.4896 2.66157 12.4914C3.23229 12.4931 3.80216 12.4931 4.37374 12.4931L5.11207 12.4922C5.08972 12.5106 5.06824 12.5298 5.04847 12.5499C4.29294 13.3159 3.53828 14.0827 2.78448 14.8504C2.55241 15.0862 2.5017 15.3605 2.64008 15.6199C2.73377 15.7945 2.88505 15.9055 3.06555 15.9325C3.26324 15.9561 3.47554 15.8819 3.64315 15.7124C4.65996 14.681 5.67592 13.6504 6.6893 12.6145C6.77783 12.5228 6.85604 12.4887 6.97638 12.4887C8.01554 12.494 9.05642 12.4931 10.0939 12.4931H11.0247L10.9396 12.6433C10.2941 13.7875 9.64864 14.9316 8.99884 16.0723C8.97735 16.109 8.9189 16.1491 8.86389 16.1649C8.34388 16.3125 7.82215 16.4548 7.30042 16.5972L6.31626 16.8671C5.73608 17.0269 5.15591 17.1867 4.57745 17.3501C4.29123 17.4313 4.12706 17.647 4.12792 17.9413C4.12878 18.2357 4.30498 18.468 4.56713 18.5221C4.72872 18.5553 4.90149 18.5248 5.01752 18.4942C5.76101 18.2942 6.50278 18.0898 7.24541 17.8846L8.11267 17.647C8.10149 17.6671 8.09032 17.6881 8.07915 17.7073L7.69236 18.3929C7.43364 18.8505 7.17579 19.3073 6.91965 19.765C6.8698 19.8541 6.8208 19.951 6.80103 20.0532C6.74602 20.3502 6.90676 20.6296 7.19298 20.7327C7.47748 20.8393 7.76714 20.7214 7.92787 20.4366C8.18831 19.9798 8.44702 19.5213 8.70574 19.0628L9.14066 18.2924C9.14753 18.2802 9.15441 18.2697 9.16215 18.2575L9.35898 18.999C9.57386 19.8069 9.79561 20.641 10.0242 21.4585C10.0689 21.6175 10.1867 21.7869 10.3311 21.9031C10.4136 21.9677 10.5133 22 10.6173 22C10.7471 22 10.8829 21.9502 10.9989 21.8506C11.2052 21.6751 11.2654 21.4402 11.1829 21.131C11.0265 20.5519 10.8726 19.9729 10.7187 19.3938C10.4978 18.5667 10.2778 17.7387 10.0543 16.9125C10.0225 16.7946 10.0346 16.7064 10.0973 16.5954C10.5133 15.8644 10.9276 15.1316 11.341 14.398L11.9625 13.2993C11.9745 13.2774 11.9874 13.2573 12.0012 13.2355L12.1387 13.4792C12.7421 14.5438 13.3446 15.6094 13.9411 16.6767C13.966 16.7212 13.9712 16.8086 13.954 16.8784C13.8371 17.3335 13.7159 17.7868 13.5938 18.24L13.4675 18.7125C13.2509 19.5196 13.0352 20.3283 12.8203 21.1371C12.7317 21.4742 12.8186 21.745 13.0678 21.8996C13.232 22.0017 13.4237 22.0218 13.593 21.9528C13.7769 21.8786 13.9162 21.71 13.9755 21.4917C14.156 20.82 14.3348 20.1467 14.5144 19.4741L14.8221 18.3169C14.8273 18.2968 14.8333 18.2767 14.8393 18.2549C14.8419 18.2593 14.8445 18.2645 14.847 18.2689L16.0332 20.3694C16.0486 20.3973 16.0641 20.4261 16.0813 20.4532C16.2721 20.7589 16.6211 20.8576 16.909 20.6882C17.2038 20.5152 17.2967 20.151 17.1248 19.8418C16.8403 19.3309 16.5523 18.8217 16.2644 18.3125L15.9146 17.695C15.9051 17.6785 15.8965 17.6619 15.8871 17.6453L16.7758 17.8889C17.515 18.0924 18.2533 18.2951 18.9934 18.4968C19.1025 18.5265 19.2435 18.5553 19.381 18.5396C19.6604 18.5021 19.8701 18.2558 19.877 17.9536C19.8856 17.6479 19.6965 17.4191 19.3578 17.3256L18.1923 17.0059C17.1901 16.7299 16.1879 16.4557 15.1874 16.1736C15.104 16.15 15.0103 16.0801 14.9699 16.0103C14.4164 15.046 13.8698 14.0775 13.3231 13.1089L13.012 12.5577C12.9999 12.5359 12.9887 12.515 12.9776 12.4922H13.7331C14.7585 12.4914 15.7831 12.4914 16.8093 12.4966C16.8643 12.4975 16.9486 12.5394 17.0036 12.5953C17.5176 13.1115 18.0273 13.6294 18.5378 14.1491L19.363 14.9901C19.6114 15.2443 19.8589 15.4976 20.1125 15.7465C20.2775 15.9081 20.501 15.9771 20.7073 15.9229C20.9032 15.874 21.0545 15.7299 21.1207 15.5264C21.2006 15.281 21.137 15.0522 20.9316 14.8452C20.3265 14.2338 19.724 13.6198 19.1206 13.0049L18.6685 12.5446C18.6521 12.5281 18.6358 12.5106 18.6186 12.4922H21.2986C21.7215 12.4922 21.9966 12.2529 22 11.8835C22.0008 11.7114 21.9458 11.5638 21.841 11.4564Z" fill="#184460"/>
</svg>
