<svg width="24" height="24" viewBox="0 0 24 24" fill="none" xmlns="http://www.w3.org/2000/svg">
<path fill-rule="evenodd" clip-rule="evenodd" d="M19.5139 14.488C19.5139 14.5776 19.4381 14.6533 19.3486 14.6533H17.3276C17.6607 13.5016 17.8889 12.2043 16.8616 10.5797L17.698 9.93331L15.0357 8.95939L15.3068 11.7813L16.0735 11.1889C16.892 12.5346 16.632 13.5359 16.2929 14.6533H12.879C13.2121 13.5016 13.4402 12.2043 12.4129 10.5797L13.2493 9.93331L10.587 8.95939L10.8581 11.7813L11.6249 11.1889C12.4434 12.5346 12.1834 13.5359 11.8441 14.6533H8.43006C8.76331 13.5016 8.99131 12.2043 7.96415 10.5797L8.80057 9.93331L6.13824 8.95939L6.40922 11.7813L7.17594 11.1889C7.99459 12.5346 7.7345 13.5359 7.39532 14.6533H4.48777C4.39822 14.6533 4.32245 14.5776 4.32245 14.488V5.48784C4.32245 5.39822 4.39822 5.32252 4.48777 5.32252H19.3486C19.4381 5.32252 19.5139 5.39822 19.5139 5.48784V14.488ZM19.3486 4H4.48777C3.66739 4 3 4.66746 3 5.48784V14.488C3 15.3084 3.66739 15.9759 4.48777 15.9759H7.03872C6.8245 17.0801 6.8876 18.3382 8.04205 19.9L8.8397 19.3104C7.84429 17.9638 7.82315 16.9705 8.05176 15.9759H11.4875C11.2733 17.0801 11.3364 18.3382 12.4907 19.9L13.2883 19.3104C12.2929 17.9637 12.2719 16.9705 12.5005 15.9759H15.9361C15.7219 17.0801 15.7852 18.3382 16.9395 19.9L17.7371 19.3104C16.7417 17.9638 16.7207 16.9705 16.9493 15.9759H19.3486C20.169 15.9759 20.8364 15.3084 20.8364 14.488V5.48784C20.8364 4.66746 20.169 4 19.3486 4Z" fill="#184460"/>
</svg>
