<svg width="24" height="24" viewBox="0 0 24 24" fill="none" xmlns="http://www.w3.org/2000/svg">
<path fill-rule="evenodd" clip-rule="evenodd" d="M8.59579 10.3477L8.55749 10.3094C8.47929 10.2251 8.47379 10.204 8.45269 10.1558C8.37259 9.97212 8.41849 9.75202 8.55749 9.60232L10.7594 7.40022C10.8657 7.30162 10.947 7.24032 11.169 7.25692C11.3522 7.28452 11.3804 7.32022 11.4666 7.40022L11.9374 7.87102C11.9797 7.86282 12.0252 7.85902 12.0736 7.86052C12.1807 7.86932 12.2505 7.88462 12.3658 7.97562L16.0187 11.0206C16.2619 11.2345 16.161 11.673 15.9089 11.8425L16.3309 12.2645C16.409 12.3487 16.4145 12.3699 16.4356 12.4181C16.5157 12.6018 16.4698 12.8218 16.3309 12.9716L14.1288 15.1736C13.9298 15.3583 13.6604 15.395 13.4217 15.1736L13.3165 15.0684L9.73509 18.6497C9.69949 18.7073 9.64929 18.7618 9.58339 18.8109L7.06559 20.5606C7.05879 20.565 7.05239 20.5691 7.04639 20.5729L6.06499 21.5543C5.99869 21.617 5.97469 21.6289 5.92839 21.6512C5.73999 21.7419 5.53899 21.7254 5.35789 21.5543L2.15129 18.3477C2.08859 18.2814 2.07669 18.2574 2.05439 18.2111C1.96369 18.0227 1.98019 17.8217 2.15129 17.6406L3.17569 16.6162C3.19729 16.5957 3.21749 16.5772 3.23779 16.5608L4.79939 14.2133C4.82389 14.1478 4.86129 14.0862 4.91029 14.0333L8.59579 10.3477ZM3.21199 17.9941L5.71149 20.4936L6.02869 20.1763L3.52919 17.6769C3.42349 17.7826 3.31769 17.8884 3.21199 17.9941ZM5.35439 15.1845L4.22279 16.8855L6.83819 19.5009L8.50939 18.3395L5.35439 15.1845ZM5.98129 14.3765L9.28769 17.6829L12.6093 14.3613L9.30289 11.0548L5.98129 14.3765ZM13.9268 11.2746C13.431 11.7754 12.9254 12.2665 12.4269 12.7646L13.7753 14.113L15.2702 12.618L13.9268 11.2746ZM13.2132 10.5611L11.113 8.46092C10.6147 8.95922 10.1164 9.45752 9.61809 9.95582L11.7192 12.0569C12.2085 11.5497 12.7121 11.0566 13.2132 10.5611ZM12.9924 6.94172C13.0995 6.95052 13.1693 6.96582 13.2846 7.05682L16.9375 10.1018C17.2292 10.3584 17.1485 10.4581 17.0957 10.6315C17.0014 10.9414 16.5775 11.0911 16.2973 10.8699L12.6443 7.82492C12.32 7.53972 12.4262 6.92512 12.9924 6.94172ZM13.9112 6.02282C14.1272 6.04072 14.147 6.09342 14.2034 6.13792L17.8564 9.18302C18.242 9.52222 17.7621 10.3821 17.2161 9.95112L13.5631 6.90612C13.3856 6.74992 13.4004 6.68502 13.3875 6.58712C13.349 6.29342 13.5454 6.01212 13.9112 6.02282ZM15.0603 5.17462C15.0684 5.16492 15.077 5.15532 15.086 5.14572L17.4844 2.74742C17.6257 2.61482 18.4446 1.99592 19.3187 2.00002C20.2635 2.02252 21.0796 3.04662 21.5072 3.77042C21.9082 4.44922 21.5203 5.31982 20.9982 6.10452C20.9982 6.10452 20.9835 6.13282 20.9284 6.19142L18.8152 8.30472C19.1245 8.66642 18.6603 9.44712 18.1349 9.03232L14.482 5.98732C13.7649 5.35652 14.53 5.09522 14.83 5.10402C14.9166 5.11112 14.9788 5.12252 15.0603 5.17462ZM19.292 3.00002C18.9 3.01182 18.5251 3.25282 18.1596 3.48772L16.1467 5.49922L18.1766 7.52912L20.1867 5.51892C20.4228 5.16402 20.7103 4.77322 20.6817 4.36102C20.6559 3.98852 19.8719 3.26842 19.3601 3.01262C19.3405 3.00292 19.3162 2.99972 19.292 3.00002Z" fill="#184460"/>
</svg>
