<svg width="24" height="24" viewBox="0 0 24 24" fill="none" xmlns="http://www.w3.org/2000/svg">
<path fill-rule="evenodd" clip-rule="evenodd" d="M18.9032 8.50855L14.2157 3.52809C14.105 3.41047 13.9506 3.34375 13.7891 3.34375H12.0312V1.58594C12.0312 1.26234 11.7689 1 11.4453 1H7.92969C7.60609 1 7.34375 1.26234 7.34375 1.58594V3.70691L5.14801 6.17711C5.0527 6.28437 5 6.42289 5 6.56641V16.8986C5.00004 17.3483 5.16984 17.7591 5.44867 18.0703C5.16984 18.3815 5 18.7924 5 19.2422C5 20.2114 5.78855 21 6.75781 21H17.3047C18.2739 21 19.0625 20.2114 19.0625 19.2422C19.0625 18.7923 18.8924 18.3816 18.6135 18.0703C18.8925 17.7591 19.0625 17.3483 19.0625 16.8984V8.91016C19.0625 8.7609 19.0055 8.61727 18.9032 8.50855ZM8.51562 2.17188H10.8594V3.34375H8.51562V2.17188ZM17.3047 19.8281H6.75781C6.43473 19.8281 6.17188 19.5653 6.17188 19.2422C6.17188 18.9191 6.43473 18.6562 6.75781 18.6562C7.08141 18.6562 7.34375 18.3939 7.34375 18.0703C7.34375 17.7467 7.08141 17.4844 6.75781 17.4844C6.43473 17.4844 6.17188 17.2215 6.17188 16.8984C6.17188 16.5754 6.43473 16.3125 6.75781 16.3125C7.08141 16.3125 7.34375 16.0502 7.34375 15.7266C7.34375 15.403 7.08141 15.1406 6.75781 15.1406C6.55238 15.1406 6.35527 15.1764 6.17188 15.2414V6.78918L8.19281 4.51562H13.5359L17.8906 9.14254V15.2414C17.7072 15.1764 17.5101 15.1406 17.3047 15.1406C16.9811 15.1406 16.7188 15.403 16.7188 15.7266C16.7188 16.0502 16.9811 16.3125 17.3047 16.3125C17.6278 16.3125 17.8906 16.5754 17.8906 16.8984C17.8906 17.2215 17.6278 17.4844 17.3047 17.4844C17.2238 17.4844 17.1467 17.5008 17.0766 17.5304C16.8663 17.6194 16.7188 17.8276 16.7188 18.0703C16.7188 18.313 16.8663 18.5212 17.0766 18.6102C17.1467 18.6398 17.2238 18.6562 17.3047 18.6562C17.6278 18.6562 17.8906 18.9191 17.8906 19.2422C17.8906 19.5653 17.6278 19.8281 17.3047 19.8281ZM13.5499 6.24089C12.8884 5.53667 11.7765 5.49687 11.0645 6.1657C10.3574 6.8316 10.3236 7.94305 10.9898 8.65039L13.681 11.5098C14.336 12.2054 15.4491 12.2596 16.1658 11.5845C16.8729 10.9186 16.9067 9.80715 16.2405 9.09981L13.5499 6.24089ZM15.3623 10.7314C15.1297 10.9505 14.7589 10.9452 14.5342 10.7065L11.843 7.84711C11.6197 7.61 11.6336 7.23945 11.8674 7.01933C12.1031 6.79789 12.4742 6.80742 12.6961 7.04363L15.3873 9.90305C15.6094 10.1389 15.5982 10.5093 15.3623 10.7314ZM12.0312 12.7969C12.2238 12.7969 12.4039 12.8914 12.5134 13.0498C12.5259 13.0679 12.8229 13.4989 13.124 14.018C13.7201 15.0455 13.7891 15.4852 13.7891 15.7266C13.7891 16.6958 13.0005 17.4844 12.0312 17.4844C11.062 17.4844 10.2734 16.6958 10.2734 15.7266C10.2734 15.4852 10.3424 15.0455 10.9385 14.018C11.2396 13.4989 11.5366 13.0679 11.5491 13.0498C11.6586 12.8914 11.8387 12.7969 12.0312 12.7969ZM11.4453 15.7272C11.4453 16.0496 11.7082 16.3125 12.0312 16.3125C12.3542 16.3125 12.6169 16.0499 12.6172 15.727C12.6122 15.5472 12.3686 15.0368 12.0314 14.4688C11.6938 15.0375 11.4501 15.5481 11.4453 15.7272Z" fill="#184460"/>
</svg>
