<svg width="24" height="24" viewBox="0 0 24 24" fill="none" xmlns="http://www.w3.org/2000/svg">
<path fill-rule="evenodd" clip-rule="evenodd" d="M9.39044 3.86357V5.20457C9.39044 5.58757 9.70144 5.89857 10.0844 5.89857H13.7484C14.1314 5.89857 14.4424 5.58757 14.4424 5.20457V3.86357C14.4424 3.48057 14.1314 3.16857 13.7484 3.16857H10.0844C9.70144 3.16857 9.39044 3.48057 9.39044 3.86357ZM7.20344 14.4526C7.20344 14.7746 6.94144 15.0376 6.61944 15.0376C6.29644 15.0376 6.03444 14.7746 6.03444 14.4526V9.13157C6.03444 7.66657 7.01744 6.39757 8.40844 6.01557C8.28544 5.76357 8.22144 5.48757 8.22144 5.20457V3.86357C8.22144 2.83557 9.05744 1.99957 10.0844 1.99957H13.7484C14.7754 1.99957 15.6114 2.83557 15.6114 3.86357V5.20457C15.6114 5.48857 15.5474 5.76457 15.4254 6.01557C16.8154 6.39757 17.7984 7.66657 17.7984 9.13157V14.4526C17.7984 14.7746 17.5364 15.0366 17.2144 15.0366C16.8914 15.0366 16.6294 14.7746 16.6294 14.4526V9.13157C16.6294 7.99357 15.7034 7.06757 14.5654 7.06757H9.26744C8.12944 7.06757 7.20344 7.99357 7.20344 9.13157V14.4526ZM17.9814 21.1478C18.1114 20.8088 18.2274 20.4418 18.3284 20.0518C18.8024 18.2118 18.7804 16.9858 18.2674 16.6878C18.1894 16.6418 18.1094 16.6188 18.0294 16.6188C17.6624 16.6188 17.0944 17.1298 16.7024 18.5708C16.6564 18.7408 16.5354 18.8818 16.3704 18.9538C16.2034 19.0268 16.0164 19.0168 15.8614 18.9318C14.7054 18.3128 13.3414 17.9858 11.9164 17.9858C10.4914 17.9858 9.12644 18.3128 7.97044 18.9328C7.81344 19.0148 7.62944 19.0258 7.46444 18.9538C7.29844 18.8828 7.17744 18.7418 7.13044 18.5708C6.73944 17.1298 6.17144 16.6188 5.80444 16.6188C5.72444 16.6188 5.64344 16.6428 5.56444 16.6878C5.05344 16.9858 5.03144 18.2118 5.50544 20.0518C5.60444 20.4388 5.72144 20.8068 5.85144 21.1478H17.9814ZM18.0294 15.4488C18.3184 15.4488 18.5974 15.5268 18.8554 15.6778C19.9124 16.2928 20.1094 17.8198 19.4594 20.3438C19.3074 20.9318 19.1234 21.4768 18.9104 21.9648C18.8184 22.1778 18.6074 22.3168 18.3744 22.3168H5.45844C5.22544 22.3168 5.01544 22.1778 4.92244 21.9648C4.70844 21.4728 4.52444 20.9278 4.37344 20.3438C3.72344 17.8188 3.92044 16.2918 4.97644 15.6778C5.23644 15.5268 5.51444 15.4488 5.80444 15.4488C6.24744 15.4488 7.33144 15.6638 8.04644 17.5978C10.4014 16.5738 13.4314 16.5738 15.7864 17.5978C16.5014 15.6638 17.5854 15.4488 18.0294 15.4488ZM14.2678 9.69527C14.1798 9.77427 12.4488 11.3853 12.4488 15.7493C12.4488 16.0713 12.7108 16.3343 13.0338 16.3343C13.3558 16.3343 13.6178 16.0713 13.6178 15.7493C13.6178 11.9853 15.0418 10.5703 15.0528 10.5603C15.2888 10.3443 15.3078 9.97527 15.0928 9.73727C14.8758 9.49727 14.5058 9.47927 14.2678 9.69527ZM8.77744 10.5583C8.54344 10.3393 8.52844 9.97027 8.74444 9.73527C8.96144 9.50027 9.32844 9.48127 9.56544 9.69527C9.64644 9.76827 11.3844 11.3873 11.3844 15.7493C11.3844 16.0713 11.1214 16.3343 10.7994 16.3343C10.4774 16.3343 10.2154 16.0713 10.2154 15.7493C10.2154 11.9919 8.80096 10.5818 8.77763 10.5585L8.77744 10.5583Z" fill="#184460"/>
</svg>
