<svg width="24" height="24" viewBox="0 0 24 24" fill="none" xmlns="http://www.w3.org/2000/svg">
<path fill-rule="evenodd" clip-rule="evenodd" d="M19.736 7.812H17.162C16.851 7.812 16.598 7.559 16.598 7.248V5.47H15.003V7.618C15.003 7.725 14.973 7.829 14.916 7.92L13.517 10.126C13.414 10.29 13.235 10.388 13.041 10.388H12.713V16.925C13.284 17.108 13.729 17.553 13.911 18.122H16.598V16.344C16.598 16.033 16.851 15.78 17.162 15.78H19.736C20.047 15.78 20.3 16.033 20.3 16.344V21.029C20.3 21.339 20.047 21.593 19.736 21.593H17.162C16.851 21.593 16.598 21.339 16.598 21.029V19.25H13.911C13.667 20.014 12.959 20.538 12.15 20.538C11.341 20.538 10.633 20.014 10.389 19.25H7.702V21.029C7.702 21.339 7.449 21.593 7.138 21.593H4.563C4.253 21.593 4 21.339 4 21.029V16.344C4 16.033 4.253 15.78 4.563 15.78H7.138C7.449 15.78 7.702 16.033 7.702 16.344V18.122H10.389C10.571 17.553 11.016 17.108 11.586 16.925V10.388H11.259C11.064 10.388 10.886 10.29 10.783 10.126L9.384 7.92C9.327 7.828 9.297 7.724 9.297 7.618V5.47H7.702V7.248C7.702 7.559 7.449 7.812 7.138 7.812H4.563C4.253 7.812 4 7.559 4 7.248V2.564C4 2.253 4.253 2 4.563 2H7.138C7.449 2 7.702 2.253 7.702 2.564V4.343H9.297V3.527C9.297 3.217 9.55 2.964 9.86 2.964H14.439C14.75 2.964 15.003 3.217 15.003 3.527V4.343H16.598V2.564C16.598 2.253 16.851 2 17.162 2H19.736C20.047 2 20.3 2.253 20.3 2.564V7.248C20.3 7.559 20.047 7.812 19.736 7.812ZM11.426 18.687C11.426 19.085 11.751 19.409 12.15 19.409C12.549 19.409 12.874 19.085 12.874 18.687C12.874 18.287 12.549 17.963 12.15 17.963C11.751 17.963 11.426 18.287 11.426 18.687ZM13.876 4.091V7.454L12.731 9.261H11.569L10.424 7.454V4.091H13.876ZM19.172 20.465H17.725V16.908H19.172V20.465ZM5.128 20.465H6.575V16.908H5.128V20.465ZM5.128 6.685H6.575V3.128H5.128V6.685ZM17.725 6.685H19.172V3.128H17.725V6.685Z" fill="#184460"/>
</svg>
