<svg width="24" height="24" viewBox="0 0 24 24" fill="none" xmlns="http://www.w3.org/2000/svg">
<path fill-rule="evenodd" clip-rule="evenodd" d="M20.285 9.07139H17.0708V8H14.3567C13.6583 8 13.0629 8.44781 12.8417 9.07139H9.44335C9.22209 8.44781 8.62669 8 7.92834 8H5.21416V9.07139H2V15.4997H5.21416V16.5711H7.92834C8.62669 16.5711 9.22209 16.1233 9.44335 15.4997H12.8417C13.0629 16.1233 13.6583 16.5711 14.3567 16.5711H17.0708V15.4997H20.285V9.07139ZM11.6782 10.1428H12.7496V14.4283H11.6782V10.1428ZM10.6068 14.4283H9.53542V10.1428H10.6068V14.4283ZM3.07139 14.4283V10.1428H5.21416V14.4283H3.07139ZM8.46403 14.964C8.46403 15.2593 8.22367 15.4997 7.92834 15.4997H6.28555V9.07139H7.92834C8.22367 9.07139 8.46403 9.31175 8.46403 9.60708V14.964ZM15.9995 15.4997H14.3567C14.0613 15.4997 13.821 15.2593 13.821 14.964V9.60708C13.821 9.31175 14.0613 9.07139 14.3567 9.07139H15.9995V15.4997ZM19.2136 14.4283H17.0708V10.1428H19.2136V14.4283Z" fill="#184460"/>
</svg>
