<svg width="24" height="24" viewBox="0 0 24 24" fill="none" xmlns="http://www.w3.org/2000/svg">
<path fill-rule="evenodd" clip-rule="evenodd" d="M20.2389 6.614C19.7609 7.034 19.1489 7.266 18.5139 7.266C17.4779 7.266 16.5399 6.652 16.1249 5.701C16.0409 5.51 15.8509 5.386 15.6419 5.386H8.27087C8.06087 5.386 7.87187 5.51 7.78787 5.701C7.37287 6.652 6.43487 7.266 5.39887 7.266C4.76387 7.266 4.15087 7.034 3.67387 6.614L3.48087 6.444L3.73787 6.439C4.69987 6.42 5.48287 5.622 5.48287 4.659C5.48287 3.697 4.69987 2.899 3.73787 2.88L3.48087 2.875L3.67387 2.705C4.15087 2.284 4.76287 2.053 5.39887 2.053C6.43487 2.053 7.37287 2.667 7.78787 3.617C7.87187 3.809 8.06087 3.932 8.27087 3.932H15.6419C15.8509 3.932 16.0409 3.809 16.1249 3.617C16.5399 2.667 17.4779 2.053 18.5139 2.053C19.1499 2.053 19.7619 2.284 20.2389 2.705L20.4309 2.875L20.1749 2.88C19.2129 2.899 18.4299 3.697 18.4299 4.659C18.4299 5.622 19.2129 6.42 20.1749 6.439L20.4309 6.444L20.2389 6.614ZM21.8269 5.625C21.7299 5.475 21.5649 5.386 21.3859 5.386H20.2099C19.8089 5.386 19.4839 5.06 19.4839 4.659C19.4839 4.259 19.8089 3.932 20.2099 3.932H21.3859C21.5649 3.932 21.7299 3.843 21.8269 3.695C21.9259 3.545 21.9409 3.359 21.8689 3.195C21.2859 1.862 19.9689 1 18.5139 1C17.2109 1 15.9969 1.701 15.3449 2.829L15.3159 2.88H8.59687L8.56887 2.829C7.91687 1.701 6.70187 1 5.39887 1C3.94387 1 2.62687 1.862 2.04387 3.195C1.97287 3.359 1.98887 3.545 2.08587 3.695C2.18287 3.843 2.34787 3.932 2.52687 3.932H3.70287C4.10387 3.932 4.42987 4.259 4.42987 4.659C4.42987 5.06 4.10387 5.386 3.70287 5.386H2.52687C2.34787 5.386 2.18287 5.475 2.08587 5.624C1.98887 5.773 1.97287 5.96 2.04387 6.123C2.62687 7.457 3.94387 8.319 5.39887 8.319C6.70187 8.319 7.91687 7.618 8.56887 6.489L8.59687 6.439H15.3159L15.3449 6.489C15.9969 7.618 17.2109 8.319 18.5139 8.319C19.9689 8.319 21.2859 7.457 21.8689 6.123C21.9409 5.96 21.9259 5.773 21.8269 5.625ZM17.4283 17.1203C17.7193 17.1203 17.9553 16.8843 17.9553 16.5943C17.9553 16.3033 17.7193 16.0663 17.4283 16.0663C17.1383 16.0663 16.9023 16.3033 16.9023 16.5943C16.9023 16.8843 17.1383 17.1203 17.4283 17.1203ZM6.69297 16.0685C6.40197 16.0685 6.16697 16.3045 6.16697 16.5955C6.16697 16.8855 6.40197 17.1225 6.69297 17.1225C6.98397 17.1225 7.21897 16.8855 7.21897 16.5955C7.21897 16.3045 6.98397 16.0685 6.69297 16.0685ZM9.19947 16.0666H14.9225C15.2135 16.0666 15.4495 16.3026 15.4495 16.5936C15.4495 16.8836 15.2135 17.1206 14.9225 17.1206H9.19947C8.90847 17.1206 8.67247 16.8836 8.67247 16.5936C8.67247 16.3026 8.90847 16.0666 9.19947 16.0666ZM5.12907 18.1504C5.40207 18.4244 5.76407 18.5734 6.14707 18.5734H17.9741C18.7631 18.5734 19.4061 17.9354 19.4071 17.1504L19.4081 16.3544C19.4091 15.7314 19.0411 15.2174 18.4461 15.0114C16.5891 14.3694 13.0671 14.1604 12.0631 14.1604C9.46307 14.1604 7.05307 14.5004 5.61607 15.0714C5.05207 15.2944 4.71507 15.7884 4.71407 16.3934L4.71307 17.1494C4.71207 17.5254 4.86007 17.8814 5.12907 18.1504ZM7.00707 21.0794C7.23007 21.0794 7.41907 20.8904 7.41907 20.6674V19.6274H6.14707C5.69307 19.6274 5.25007 19.5044 4.86507 19.2714L4.71307 19.1804V20.6674C4.71307 20.8904 4.90207 21.0794 5.12607 21.0794H7.00707ZM6.72384 13.0364C6.58997 13.2902 6.4874 13.4846 6.46207 13.5324L6.35807 13.7284L6.57407 13.6774C8.09607 13.3084 10.0451 13.1064 12.0631 13.1064C12.5231 13.1064 15.3301 13.2064 17.5381 13.6774L17.7461 13.7224L17.6471 13.5334C17.5731 13.3914 16.6231 11.5864 16.6231 11.5864C16.3641 11.0944 15.9051 10.8124 15.3621 10.8124H8.74907C8.19907 10.8124 7.75107 11.0874 7.48907 11.5854L7.23207 12.0734C7.06696 12.3861 6.87535 12.7493 6.72384 13.0364ZM18.9961 21.0794C19.2191 21.0794 19.4081 20.8904 19.4081 20.6674V19.1784L19.2561 19.2694C18.8701 19.5034 18.4261 19.6274 17.9741 19.6274H16.7031V20.6674C16.7031 20.8904 16.8911 21.0794 17.1151 21.0794H18.9961ZM18.9961 22.1334H17.1151C16.3071 22.1334 15.6491 21.4744 15.6491 20.6674V19.6274H8.47307V20.6674C8.47307 21.4744 7.81507 22.1334 7.00707 22.1334H5.12607C4.31807 22.1334 3.66007 21.4744 3.66007 20.6674L3.66107 16.3914C3.66307 15.5094 4.10907 14.7184 4.85607 14.2744L4.88007 14.2604L4.89407 14.2354C4.94665 14.1339 5.1331 13.7823 5.3646 13.3456C5.4501 13.1844 5.54175 13.0115 5.63507 12.8354C5.77534 12.5705 5.91962 12.2984 6.05267 12.0475C6.27723 11.624 6.46979 11.2608 6.55707 11.0944C6.99707 10.2584 7.81607 9.7594 8.74907 9.7594H15.3621C16.2941 9.7594 17.1141 10.2594 17.5541 11.0954C17.5541 11.0954 18.8961 13.6484 19.1681 14.1634L19.1821 14.1894L19.2081 14.2034C19.9941 14.6434 20.4631 15.4484 20.4621 16.3564V20.6674C20.4621 21.4744 19.8041 22.1334 18.9961 22.1334Z" fill="#184460"/>
</svg>
