<svg width="24" height="24" viewBox="0 0 24 24" fill="none" xmlns="http://www.w3.org/2000/svg">
<g clip-path="url(#clip0_594_2605)">
<path fill-rule="evenodd" clip-rule="evenodd" d="M21.4491 0.0204771C21.6308 -0.0288274 21.8251 0.0120845 21.9715 0.130466C22.1247 0.237123 22.2169 0.411259 22.219 0.597918V4.0259C22.2169 4.21256 22.1247 4.38669 21.9715 4.49335C21.8735 4.56604 21.7544 4.60467 21.6324 4.60334H21.4491L17.9753 3.42096C17.7372 3.34435 17.5772 3.12109 17.5811 2.87102H17.0312V5.0158C18.4326 5.67743 19.328 7.08656 19.3318 8.63626V19.6351C19.3422 19.9608 19.089 20.2344 18.7635 20.2492H14.5043C14.3343 20.297 14.1551 20.3226 13.9698 20.3226H2.97097C1.88262 20.3226 1.00034 19.4403 1.00034 18.3519V11.0194C0.9905 10.4904 1.19376 9.97967 1.5644 9.60214C1.93504 9.22461 2.44191 9.01196 2.97097 9.01206H11.3209V8.67292C11.313 7.66542 11.6825 6.71421 12.3241 5.98618C12.6822 5.57572 13.1258 5.24014 13.6307 5.00663V2.87102H12.4575C11.6966 2.87586 10.9688 3.18278 10.4343 3.72424C9.89967 4.2657 9.60208 4.99735 9.60696 5.75822H8.47041C8.46308 4.69602 8.87991 3.67481 9.62843 2.92113C10.377 2.16745 11.3953 1.74361 12.4575 1.74363H17.6178C17.6138 1.49356 17.7739 1.2703 18.0119 1.19369L21.4491 0.0204771ZM18.1952 19.1127H15.7883C15.8863 18.8786 15.9405 18.6216 15.9405 18.3519V11.0194C15.9503 10.4904 15.7471 9.97967 15.3764 9.60214C15.0058 9.22461 14.4989 9.01196 13.9698 9.01206H12.4942V8.6271C12.4942 8.03952 12.6708 7.4932 12.9739 7.03834C13.6367 6.06666 14.8418 5.58898 16.0092 5.87194C17.2965 6.18395 18.2011 7.33917 18.1952 8.66376V19.1127ZM14.7581 4.65833C15.1345 4.59725 15.5183 4.59725 15.8946 4.65833V2.87102H14.7581V4.65833ZM21.0824 3.23765L18.7819 2.47689V2.15609L21.0824 1.38617V3.23765ZM2.97097 10.2403C2.5407 10.2403 2.19189 10.5891 2.19189 11.0194V18.3519C2.19189 18.7822 2.5407 19.131 2.97097 19.131H13.9698C14.4001 19.131 14.7489 18.7822 14.7489 18.3519V11.0194C14.7489 10.5891 14.4001 10.2403 13.9698 10.2403H2.97097ZM8 12H9V14H11V15H9V17H8V15H6V14H8V12Z" fill="#184460"/>
</g>
<defs>
<clipPath id="clip0_594_2605">
<rect width="24" height="24" fill="white"/>
</clipPath>
</defs>
</svg>
