<svg width="24" height="24" viewBox="0 0 24 24" fill="none" xmlns="http://www.w3.org/2000/svg">
<path fill-rule="evenodd" clip-rule="evenodd" d="M19.9753 19.9756C21.3779 18.5731 21.2114 16.2527 19.6263 15.0639L19.6158 15.0562L14.6932 11.5506L14.871 11.3456L14.8751 11.3407C14.9751 11.2225 15.1213 11.1547 15.2761 11.1547H17.3254C17.7464 11.1547 18.1421 10.9908 18.4397 10.6931L20.1624 8.97047C21.1866 7.94635 21.1866 6.27994 20.1624 5.25578C20.0639 5.15726 19.9303 5.10189 19.791 5.10189C19.6517 5.10189 19.518 5.15723 19.4195 5.25575L17.9336 6.74165C17.7288 6.94647 17.3955 6.94647 17.1907 6.74165C16.9854 6.53631 16.9854 6.20404 17.1907 5.99873L18.6766 4.51283C18.8817 4.30766 18.8817 3.97505 18.6766 3.76991C17.6501 2.74345 15.9885 2.74327 14.9619 3.76991L13.2392 5.49265C12.9415 5.79031 12.7715 6.18607 12.7715 6.60705V8.65627C12.7715 8.81115 12.7098 8.9573 12.5916 9.05733L12.5879 9.06051L11.8904 9.66194L9.22032 6.99186L8.51674 4.88075C8.47293 4.74938 8.37903 4.6406 8.25547 4.57808L5.24871 3.05722C5.04617 2.95478 4.80069 2.99397 4.64011 3.15448L3.1542 4.64039C2.99366 4.8009 2.95443 5.04641 3.05691 5.24895L4.57783 8.25575C4.64032 8.37931 4.74913 8.47321 4.88051 8.51702L6.99165 9.22075L9.49694 11.726L3.93197 16.5249C3.42791 16.9523 3.1044 17.5477 3.02087 18.2018C2.93387 18.8834 3.12072 19.5389 3.54703 20.0475C4.53752 21.2294 6.331 21.2187 7.31078 20.0643L11.4832 15.2525L15.0706 19.6359C16.2623 21.2131 18.5763 21.3747 19.9753 19.9756ZM5.02943 18.3546C5.02943 18.6447 5.26463 18.8799 5.55478 18.8799C5.84492 18.8799 6.08013 18.6447 6.08013 18.3546C6.08013 18.0644 5.84492 17.8292 5.55478 17.8292C5.26463 17.8292 5.02943 18.0644 5.02943 18.3546ZM7.6469 8.3901L10.2948 11.038L11.0926 10.35L8.38978 7.64718C8.33213 7.58953 8.28863 7.5192 8.26286 7.44184L7.5883 5.41812L5.11397 4.16652L4.16627 5.11429L5.41783 7.58862L7.44156 8.26317C7.51892 8.28898 7.58925 8.33245 7.6469 8.3901ZM14.0755 10.6594L6.51526 19.378L6.51113 19.3828C5.9518 20.0439 4.9239 20.0546 4.35232 19.3727C3.86672 18.7932 3.98594 17.8556 4.61275 17.3253L4.61646 17.3221C8.13816 14.2901 10.6174 12.1496 12.1178 10.8542L12.1195 10.8527C12.606 10.4327 12.9896 10.1015 13.2723 9.85772C13.6257 9.55771 13.8223 9.11998 13.8223 8.65627V6.60705C13.8223 6.46675 13.883 6.33482 13.9822 6.2356L15.7049 4.5129C16.1987 4.01911 16.9251 3.92973 17.4991 4.20456L16.4479 5.25582C15.8334 5.8703 15.8334 6.87015 16.4479 7.48464C17.0623 8.09909 18.0622 8.09909 18.6767 7.48464L19.7274 6.4339C20.0065 7.01967 19.9039 7.74328 19.4196 8.22759L17.6969 9.95028C17.5977 10.0495 17.4658 10.1111 17.3255 10.1111H15.2762C14.8129 10.1111 14.3755 10.3065 14.0755 10.6594ZM12.1817 14.447L12.8809 15.3013L14.8428 12.947L14.0018 12.348L12.1817 14.447ZM19.0007 15.908C20.0722 16.7163 20.1798 18.2854 19.2324 19.2327C18.2821 20.1829 16.7098 20.0704 15.9042 18.9962C15.8997 18.9903 15.8951 18.9844 15.8904 18.9787L13.5586 16.1294L15.7012 13.5582L19.0007 15.908Z" fill="#184460"/>
</svg>
