<svg width="24" height="24" viewBox="0 0 24 24" fill="none" xmlns="http://www.w3.org/2000/svg">
<path fill-rule="evenodd" clip-rule="evenodd" d="M17.6301 4.15968V15.8003L20.9079 20.2436C21.1392 20.5572 20.9137 20.9999 20.526 20.9999H16.5937C16.3316 20.9999 16.1191 20.7874 16.1191 20.5253V19.8764H14.8213V20.5253C14.8213 20.7874 14.6088 20.9999 14.3467 20.9999H10.4145C10.0248 20.9999 9.80243 20.5556 10.0326 20.2436L13.3104 15.8003L13.3105 4.16091V4.15752C13.3111 4.03182 13.3614 3.91206 13.4494 3.82412L15.1346 2.13888C15.32 1.95353 15.6205 1.95355 15.8058 2.13888L17.491 3.82412C17.58 3.91313 17.6301 4.03383 17.6301 4.15968ZM16.6809 9.7549V7.72673L14.2596 5.30541V7.33359L16.6809 9.7549ZM16.6809 11.0972L14.2596 8.6759V10.7041L16.6809 13.1254V11.0972ZM16.6809 15.4818V14.4677L14.2596 12.0464V15.4818H16.6809ZM16.6809 4.35628L15.4702 3.14563L14.4561 4.15971L16.6809 6.38446V4.35628ZM17.0683 19.4018V20.0507H19.5862L16.9159 16.431H14.0247L11.3544 20.0507H13.8722V19.4018C13.8722 19.1397 14.0846 18.9272 14.3467 18.9272H16.5937C16.8558 18.9272 17.0683 19.1397 17.0683 19.4018Z" fill="#184460"/>
<path fill-rule="evenodd" clip-rule="evenodd" d="M5.37115 7.19945L2.09334 2.75621C1.86201 2.44258 2.08753 1.99988 2.47525 1.99988H6.40748C6.66957 1.99988 6.88206 2.21237 6.88206 2.47446V3.12337H8.17988V2.47446C8.17988 2.21237 8.39237 1.99988 8.65447 1.99988H12.5867C12.9764 1.99988 13.1988 2.44419 12.9686 2.75621L9.6908 7.19945V18.8401C9.6908 18.9659 9.64078 19.0866 9.55177 19.1756L7.86653 20.8609C7.68119 21.0463 7.38068 21.0462 7.19538 20.8609L5.51012 19.1756C5.41992 19.0855 5.37189 18.963 5.37133 18.8422L5.37115 18.8382V7.19945ZM6.32031 14.3238L8.74163 11.9025V9.87432L6.32031 12.2957V14.3238ZM8.74163 13.2448L6.32031 15.6661V17.6943L8.74163 15.273V13.2448ZM6.32031 10.9533L8.74163 8.53201V7.51792H6.32031V10.9533ZM6.51689 18.84L7.53097 19.8541L8.74163 18.6435V16.6153L6.51689 18.84ZM5.9329 3.59796V2.94905H3.41504L6.08532 6.56876H8.97655L11.6468 2.94905H9.12905V3.59796C9.12905 3.86005 8.91656 4.07254 8.65447 4.07254H6.40748C6.14538 4.07254 5.9329 3.86005 5.9329 3.59796Z" fill="#184460"/>
</svg>
