<svg width="24" height="24" viewBox="0 0 24 24" fill="none" xmlns="http://www.w3.org/2000/svg">
<path fill-rule="evenodd" clip-rule="evenodd" d="M4.72919 12.7191L7.70873 22.1543C7.79189 22.4176 8.07276 22.5637 8.33609 22.4805C8.59941 22.3974 8.74547 22.1165 8.66231 21.8532L6.91034 16.3053L8.28426 15.1031C9.42021 14.1091 10.7923 13.4422 12.2551 13.157L12.787 14.6982C12.8435 14.8617 12.9805 14.9845 13.1492 15.0227C15.1532 15.4764 17.2014 15.1237 18.8892 14.43C20.5646 13.7415 21.9598 12.6854 22.6192 11.6466C22.6996 11.52 22.7189 11.364 22.6718 11.2216L19.622 2.00071C19.5715 1.84813 19.4508 1.72911 19.2975 1.68082C19.1442 1.63254 18.9771 1.66087 18.8483 1.75697C17.3886 2.84604 15.7806 3.4193 13.6561 3.48452L12.9764 1.3484C12.9104 1.14091 12.7177 1 12.4999 1H9.99954C7.94402 1 5.94396 1.66669 4.29954 2.9L2.98778 3.88382L2.97693 3.84945C2.89377 3.58612 2.61289 3.44007 2.34957 3.52322C2.08624 3.60638 1.94019 3.88725 2.02334 4.15058L4.68503 12.5793C4.69268 12.6272 4.70737 12.6744 4.72919 12.7191ZM9.99954 2C9.87793 2 9.75653 2.00261 9.63543 2.0078L10.3795 4.36419C10.6906 4.33328 11.0041 4.31763 11.3191 4.31763H12.8718L12.1343 2H9.99954ZM13.1899 5.31763H11.3191C11.1079 5.31763 10.8974 5.32549 10.688 5.34107L11.698 8.53923C11.9837 8.51319 12.2714 8.50002 12.5604 8.50002H14.2025L13.1899 5.31763ZM14.5207 9.50002H12.5604C12.3753 9.50002 12.1908 9.50606 12.0071 9.51804L12.81 12.0606C13.1642 12.0204 13.5219 12 13.8816 12H15.3161L14.5207 9.50002ZM10.6953 8.68488L9.6822 5.47672C8.84187 5.64164 8.03158 5.93259 7.27895 6.33917L8.28267 9.51761C9.04505 9.13316 9.85661 8.85282 10.6953 8.68488ZM8.58823 10.4852C9.34404 10.0857 10.1566 9.80213 10.9984 9.64475L11.8141 12.2277C10.9792 12.4139 10.1732 12.712 9.41829 13.1137L8.58823 10.4852ZM7.39488 10.0271L6.40232 6.88399C6.16745 7.05055 5.94028 7.22959 5.72183 7.42072L4.4548 8.52938L5.42958 11.6162L6.3046 10.8505C6.64962 10.5487 7.01414 10.2738 7.39488 10.0271ZM5.75835 12.6573L6.96311 11.6031C7.20166 11.3944 7.45062 11.2001 7.70865 11.0207L8.53756 13.6456C8.22108 13.8609 7.9165 14.0961 7.62575 14.3505L6.58158 15.2642L5.75835 12.6573ZM13.5281 13.7805L13.2665 13.0223C13.4705 13.0075 13.6757 13 13.8816 13H14.5092L13.5281 13.7805ZM14.5885 14.2148C15.9539 14.2878 17.3166 13.9952 18.5091 13.5051C18.6196 13.4597 18.7282 13.4128 18.8349 13.3644L18.0471 10.8697C17.4757 11.1326 16.8592 11.3567 16.214 11.5238L16.4764 12.3484C16.5248 12.5004 16.4977 12.6664 16.4035 12.7951C16.3379 12.8849 16.2452 12.949 16.141 12.9797L14.5885 14.2148ZM18.9483 10.4026L19.7365 12.8985C20.5871 12.4 21.2506 11.8278 21.6443 11.2997L20.8559 8.91585C20.4075 9.40365 19.8181 9.87398 19.1421 10.2871C19.0784 10.326 19.0138 10.3645 18.9483 10.4026ZM20.4815 7.78399C20.132 8.30873 19.4937 8.89748 18.6388 9.42264L17.9542 7.25471C18.6808 6.88943 19.364 6.42816 19.8722 5.94184L20.4815 7.78399ZM19.5129 4.85549C19.1625 5.31079 18.4854 5.84661 17.6487 6.28732L16.9025 3.92429C17.603 3.68002 18.2575 3.35601 18.883 2.95085L19.5129 4.85549ZM14.8063 7.0995C15.3923 7.10405 16.0636 6.9554 16.7311 6.70225L15.9417 4.20241C15.3246 4.34643 14.6708 4.43615 13.9704 4.47237L14.8063 7.0995ZM17.0326 7.65713C16.4076 7.88955 15.7513 8.05136 15.1216 8.09045L15.9103 10.5693C16.559 10.4052 17.1773 10.177 17.7434 9.90781L17.0326 7.65713ZM4.12603 7.48828L5.06333 6.66815C5.3884 6.38371 5.73077 6.12324 6.08772 5.88775L5.30627 3.41316C5.16823 3.50458 5.03258 3.60022 4.89954 3.7L3.30693 4.89446L4.12603 7.48828ZM6.97293 5.37009C7.73256 4.97928 8.54206 4.69241 9.37937 4.51775L8.61988 2.11271C7.77568 2.25158 6.95741 2.51711 6.19291 2.90002L6.97293 5.37009Z" fill="#184460"/>
</svg>
