<svg width="24" height="24" viewBox="0 0 24 24" fill="none" xmlns="http://www.w3.org/2000/svg">
<path fill-rule="evenodd" clip-rule="evenodd" d="M14 12C14 13.1046 13.1046 14 12 14C10.8954 14 10 13.1046 10 12C10 10.8954 10.8954 10 12 10C13.1046 10 14 10.8954 14 12ZM13 12C13 12.5523 12.5523 13 12 13C11.4477 13 11 12.5523 11 12C11 11.4477 11.4477 11 12 11C12.5523 11 13 11.4477 13 12Z" fill="#184460"/>
<path fill-rule="evenodd" clip-rule="evenodd" d="M20 12C20 14.0662 19.2167 15.9494 17.9309 17.3689C17.9111 17.3955 17.8884 17.4203 17.863 17.443C17.1605 18.1994 16.3134 18.8196 15.3657 19.2597C15.3336 19.2788 15.3001 19.294 15.2658 19.3052C14.2686 19.7517 13.1633 20 12 20C10.8368 20 9.73163 19.7518 8.73451 19.3054C8.69988 19.294 8.66608 19.2788 8.63376 19.2594C5.8974 17.9884 4 15.2158 4 12C4 10.589 4.36529 9.26334 5.00645 8.11239C5.02341 8.07039 5.04555 8.03183 5.07187 7.99721C6.19825 6.05186 8.12046 4.62482 10.3932 4.16141L10.4067 4.15867C10.9216 4.05461 11.4544 4 12 4C12.5463 4 13.0798 4.05476 13.5954 4.15909L13.6045 4.16094C15.8785 4.62391 17.8018 6.05152 18.9285 7.99787C18.9545 8.03212 18.9763 8.07021 18.9931 8.11164C19.6346 9.26276 20 10.5887 20 12ZM10.9999 5.0709C11.3266 5.02417 11.6605 5 12 5C12.3395 5 12.6734 5.02417 12.9999 5.07088V7.17999C12.9999 8.88119 14.6632 10.0799 16.2747 9.55543L18.2809 8.90613C18.5733 9.49864 18.7844 10.1385 18.8994 10.8111C18.6784 10.8823 18.4025 10.9721 18.0942 11.0749L16.8866 11.4641L16.8851 11.4646C15.2733 11.9893 14.6352 13.9385 15.6356 15.3141L16.8767 17.0217C16.4002 17.4846 15.8579 17.8803 15.2653 18.1933L14.0243 16.4859C13.0246 15.1114 10.9752 15.1114 9.97557 16.4859L8.7346 18.1933C8.14023 17.8793 7.59653 17.4822 7.11894 17.0175L8.36431 15.3041C9.36475 13.9285 8.72579 11.9791 7.1139 11.4543L5.10192 10.8031C5.21722 10.1339 5.42753 9.49722 5.71845 8.90742C5.95528 8.98426 6.25491 9.08086 6.58926 9.18865C6.94033 9.30184 7.33049 9.42764 7.72553 9.55555C9.33708 10.08 10.9999 8.88118 10.9999 7.17999V5.0709ZM18.4081 12.0243C18.6232 11.9526 18.8224 11.8873 18.998 11.8302C18.9993 11.8867 19 11.9433 19 12C19 13.6016 18.4621 15.0775 17.5572 16.2571L16.4443 14.7259C15.8449 13.9017 16.2271 12.7309 17.1947 12.4154L18.4033 12.0259L18.4081 12.0243ZM14.3274 18.6038C13.5993 18.8604 12.8159 19 12 19C11.184 19 10.4007 18.8604 9.6725 18.6037L10.7844 17.074C11.3847 16.2487 12.6152 16.2488 13.2156 17.0741L14.3274 18.6038ZM7.55549 14.716L6.43901 16.2521C5.53636 15.0734 5 13.5993 5 12C5 11.9405 5.00074 11.8811 5.00222 11.8219L6.80555 12.4056C7.77336 12.721 8.15496 13.8918 7.55549 14.716ZM6.23771 8.02445C7.1334 6.72867 8.45489 5.74974 9.99994 5.2899V7.17999C9.99994 8.19867 9.00306 8.91983 8.03473 8.60456C7.63443 8.47494 7.242 8.34841 6.89057 8.23511L6.88325 8.23275C6.64667 8.15647 6.4278 8.08591 6.23771 8.02445ZM13.9999 7.17999V5.28986C15.5445 5.74954 16.8657 6.728 17.7614 8.02319L15.9651 8.60456C14.9968 8.91983 13.9999 8.19867 13.9999 7.17999Z" fill="#184460"/>
<path fill-rule="evenodd" clip-rule="evenodd" d="M12 2C6.47715 2 2 6.47715 2 12C2 17.5228 6.47715 22 12 22C17.5228 22 22 17.5228 22 12C22 6.47715 17.5228 2 12 2ZM3 12C3 7.02944 7.02944 3 12 3C16.9706 3 21 7.02944 21 12C21 16.9706 16.9706 21 12 21C7.02944 21 3 16.9706 3 12Z" fill="#184460"/>
</svg>
